<svg width="128" height="128" viewBox="0 0 128 128" xmlns="http://www.w3.org/2000/svg">
  <defs>
    <!-- BoldTake Brand Gradient -->
    <linearGradient id="boldGradient" x1="0%" y1="0%" x2="100%" y2="100%">
      <stop offset="0%" style="stop-color:#00ff88;stop-opacity:1" />
      <stop offset="50%" style="stop-color:#64ffda;stop-opacity:1" />
      <stop offset="100%" style="stop-color:#4fc3f7;stop-opacity:1" />
    </linearGradient>
    
    <!-- Glow Effect -->
    <filter id="glow" x="-20%" y="-20%" width="140%" height="140%">
      <feGaussianBlur stdDeviation="4" result="coloredBlur"/>
      <feMerge> 
        <feMergeNode in="coloredBlur"/>
        <feMergeNode in="SourceGraphic"/>
      </feMerge>
    </filter>
    
    <!-- Shadow -->
    <filter id="shadow" x="-50%" y="-50%" width="200%" height="200%">
      <feDropShadow dx="2" dy="4" stdDeviation="3" flood-color="#000000" flood-opacity="0.3"/>
    </filter>
  </defs>
  
  <!-- Background Circle -->
  <circle cx="64" cy="64" r="60" fill="#0a0e1a" stroke="url(#boldGradient)" stroke-width="3" filter="url(#shadow)"/>
  
  <!-- Bold "B" Letter -->
  <path d="M35 25 L35 103 L65 103 Q80 103 80 88 Q80 78 72 73 Q80 68 80 58 Q80 43 65 43 L35 43 Z
           M45 35 L60 35 Q70 35 70 43 Q70 51 60 51 L45 51 Z
           M45 61 L62 61 Q72 61 72 73 Q72 85 62 85 L45 85 Z" 
        fill="url(#boldGradient)" 
        filter="url(#glow)"/>
        
  <!-- Lightning Accent -->
  <path d="M75 30 L85 30 L75 50 L85 50 L75 70 L85 50 L75 50 Z" 
        fill="#00ff88" 
        opacity="0.8"
        transform="scale(0.6) translate(35, 10)"/>
        
  <!-- Dot Accents -->
  <circle cx="90" cy="40" r="2.5" fill="#64ffda" opacity="0.9"/>
  <circle cx="85" cy="85" r="2" fill="#4fc3f7" opacity="0.7"/>
  <circle cx="40" cy="20" r="1.5" fill="#00ff88" opacity="0.6"/>
</svg>
