<svg width="838" height="293" viewBox="0 0 838 293" fill="none" xmlns="http://www.w3.org/2000/svg">
<path d="M409.57 181.31H363.78V181.57C365.08 191.43 372.47 198.82 381.03 198.95C386.35 198.69 391.8 196.49 395.56 192.72L404.9 198.3C402.57 200.89 399.97 203.1 396.99 204.92C392.45 207.65 386.87 209.07 381.29 209.33C373.51 209.33 366.37 206.09 361.18 200.25C356.51 195.19 353.66 188.71 353.14 181.57C353.01 180.66 353.01 179.75 353.01 178.85C353.01 176.51 353.27 174.18 353.79 171.85C354.96 166.4 357.55 161.47 361.19 157.45C366.38 151.74 373.64 148.5 381.3 148.5C389.08 148.5 396.22 151.74 401.54 157.45C405.17 161.47 407.9 166.4 408.93 171.85C409.83 177.16 409.7 180.14 409.57 181.31ZM397.9 171.97L397.77 171.71C395.18 164.06 388.56 158.87 381.3 158.87C374.17 158.87 367.55 164.06 364.82 171.71L364.69 171.97H397.9Z" fill="#50BB7A"/>
<path d="M431.73 135.26V208.29H420.05V115.93H432.76L482.05 188.97V115.93H493.73V208.29H481.15L431.73 135.26Z" fill="#50BB7A"/>
<path d="M560.67 148.88H571.83V208.29H560.67V201.41C555.09 206.08 548.09 209.58 540.69 209.58C532.39 209.58 524.6 206.47 518.64 200.63C512.8 194.66 509.56 186.88 509.56 178.58C509.56 170.28 512.8 162.49 518.64 156.53C524.61 150.69 532.39 147.58 540.69 147.58C548.09 147.58 555.09 151.08 560.67 155.75V148.88ZM560.67 178.59C560.67 167.56 551.72 158.48 540.69 158.48C529.66 158.48 520.71 167.56 520.71 178.59C520.71 189.62 529.66 198.7 540.69 198.7C551.72 198.69 560.67 189.61 560.67 178.59Z" fill="#50BB7A"/>
<path d="M591.93 188.57V159.51H583.11V148.87H591.93V125.91H603.09V148.87H621.38V159.51H603.09V188.31C603.09 193.11 607.24 197.65 611.91 197.65H621.9L624.75 208.29H611.65C600.75 208.29 591.93 199.6 591.93 188.57Z" fill="#50BB7A"/>
<path d="M721.52 148.88L697.39 208.29H685.32L669 167.09L681.06 157.98L691.42 193.5L709.45 148.87H721.52V148.88Z" fill="#50BB7A"/>
<path d="M782.22 181.31H736.43V181.57C737.73 191.43 745.12 198.82 753.68 198.95C759 198.69 764.45 196.49 768.21 192.72L777.55 198.3C775.22 200.89 772.62 203.1 769.64 204.92C765.1 207.65 759.52 209.07 753.94 209.33C746.16 209.33 739.02 206.09 733.83 200.25C729.16 195.19 726.31 188.71 725.79 181.57C725.66 180.66 725.66 179.75 725.66 178.85C725.66 176.51 725.92 174.18 726.44 171.85C727.61 166.4 730.2 161.47 733.84 157.45C739.03 151.74 746.29 148.5 753.95 148.5C761.73 148.5 768.87 151.74 774.19 157.45C777.82 161.47 780.55 166.4 781.58 171.85C782.48 177.16 782.35 180.14 782.22 181.31ZM770.55 171.97L770.42 171.71C767.83 164.06 761.21 158.87 753.95 158.87C746.82 158.87 740.2 164.06 737.47 171.71L737.34 171.97H770.55Z" fill="#50BB7A"/>
<path d="M196.19 233.44C199.53 232.08 202.53 231.29 205.72 230.49C208.86 229.68 212.02 229.08 215.19 228.51C221.52 227.42 227.89 226.81 234.25 226.33C246.98 225.42 259.71 225.73 272.36 226.62L281.84 227.34L291.29 228.42C292.86 228.61 294.44 228.76 296.01 228.98L300.71 229.7L310.1 231.14L328.75 234.72L347.32 238.49C372.09 243.46 396.87 248.37 421.79 252.44C434.25 254.42 446.75 256.28 459.31 257.09C465.58 257.44 471.91 257.65 478.06 256.67C479.59 256.43 481.11 256.08 482.58 255.63C484.03 255.17 485.49 254.58 486.52 253.67C487.02 253.21 487.33 252.67 487.3 252.13C487.28 251.58 486.94 250.97 486.47 250.44C485.52 249.36 484.21 248.5 482.89 247.74C477.4 244.83 471.47 242.47 465.79 239.69C462.94 238.31 460.1 236.89 457.36 235.24C455.99 234.41 454.65 233.53 453.39 232.49C452.77 231.96 452.16 231.39 451.64 230.71C451.13 230.04 450.63 229.16 450.76 228.08C450.94 227 451.74 226.3 452.46 225.86C453.2 225.41 453.98 225.11 454.76 224.85C456.32 224.36 457.9 224.06 459.48 223.85C462.65 223.44 465.83 223.2 469 223.21C475.35 223.16 481.68 223.62 487.97 224.24C500.56 225.51 513.06 227.47 525.53 229.47L562.94 235.55C575.42 237.5 587.92 239.32 600.47 240.66C613.01 242.01 625.63 242.94 638.24 242.67C644.53 242.51 650.85 242.17 657.05 241.11C658.59 240.83 660.13 240.5 661.6 240.04C663.04 239.56 664.59 238.98 665.48 237.91C666.42 236.83 665.55 235.35 664.48 234.33C663.4 233.26 662.1 232.38 660.78 231.55C655.43 228.3 649.58 225.83 643.85 223.2C640.98 221.88 638.08 220.61 635.3 218.99C634.61 218.57 633.92 218.14 633.29 217.51C633.13 217.34 632.98 217.16 632.86 216.9C632.73 216.66 632.66 216.24 632.84 215.9C633.23 215.27 633.72 215.19 634.12 215.03C635.78 214.59 637.37 214.6 638.96 214.56C639.24 214.55 639.47 214.77 639.48 215.05C639.49 215.33 639.27 215.56 638.99 215.57H638.98C637.43 215.59 635.82 215.61 634.42 215.99C634.09 216.07 633.76 216.27 633.74 216.35C633.7 216.32 633.77 216.59 634.02 216.84C634.5 217.33 635.16 217.76 635.81 218.16C638.48 219.74 641.39 221.02 644.24 222.34C649.97 224.99 655.8 227.47 661.25 230.8C662.6 231.65 663.93 232.56 665.1 233.72C665.68 234.3 666.23 234.95 666.56 235.79C666.93 236.62 666.76 237.74 666.17 238.43C664.99 239.8 663.38 240.32 661.87 240.83C660.33 241.31 658.77 241.64 657.21 241.91C650.94 242.96 644.6 243.29 638.28 243.43C631.95 243.56 625.62 243.37 619.31 242.99C613 242.63 606.7 242.09 600.41 241.42C587.83 240.11 575.32 238.32 562.83 236.4L525.4 230.42C512.93 228.46 500.44 226.53 487.89 225.31C481.62 224.71 475.32 224.27 469.04 224.33C465.9 224.32 462.77 224.57 459.67 224.98C458.12 225.19 456.59 225.5 455.14 225.95C453.76 226.39 452.15 227.14 451.97 228.22C451.85 229.33 453.08 230.59 454.2 231.52C455.38 232.49 456.69 233.34 458.02 234.15C460.7 235.75 463.52 237.16 466.36 238.51C472.04 241.27 477.88 243.55 483.57 246.55C484.96 247.36 486.36 248.23 487.51 249.53C488.07 250.18 488.61 250.99 488.67 252.04C488.72 253.11 488.12 254.04 487.46 254.63C486.11 255.82 484.54 256.39 483.01 256.9C481.46 257.38 479.89 257.74 478.31 258C471.96 259.03 465.57 258.83 459.25 258.49C446.59 257.7 434.06 255.88 421.57 253.93C396.6 249.93 371.79 245.09 347 240.19L328.42 236.47C322.22 235.27 316.01 234.23 309.8 233.14L300.44 231.85L295.76 231.2C294.2 231.01 292.63 230.88 291.06 230.71L281.66 229.78L272.24 229.21C259.68 228.67 247.08 228.87 234.63 230.18C231.52 230.53 228.41 230.85 225.34 231.43C222.25 231.89 219.21 232.54 216.17 233.19C213.15 233.9 210.14 234.64 207.2 235.57C204.31 236.46 201.27 237.57 198.83 238.76L198.68 238.83C197.2 239.56 195.41 238.94 194.68 237.46C193.95 235.98 194.57 234.19 196.05 233.46C196.06 233.5 196.13 233.47 196.19 233.44Z" fill="#00A14B"/>
<path d="M696.02 86.62C693.51 88.23 690.17 90.48 685.79 91.79C685.79 91.79 689.94 91.52 694.99 90.28C691.6 102.69 688.62 117.28 686.74 134.09C678.15 144.28 665.38 147.5 665.38 147.5C674.29 149.93 685.82 145.08 685.82 145.08C680.94 151.49 664.76 158.34 655.13 161.99C649.82 164 646.18 168.9 645.7 174.56C645.23 180.04 645.74 186.92 649.5 192.84C649.5 192.84 638.45 203.2 634.45 214.42C634.57 212.86 641.4 125.22 691.97 62.97L691.44 63.5C649.04 109.4 637.12 180.69 637.12 180.69C636.78 180.1 636.56 179.44 636.49 178.77C636.44 178.3 636.45 177.82 636.53 177.36C636.98 174.74 637.36 172.57 637.99 169.76C638.84 165.83 638.48 161.72 636.95 157.99C633.03 148.44 631.84 138.73 632 133.03C632.03 132.14 632.2 131.27 632.51 130.44C632.51 130.43 632.52 130.43 632.52 130.43C633.12 133.25 634.9 138.3 640.08 141.68C640.08 141.68 635.34 134.37 635.16 123.47C635.16 123.46 635.16 123.46 635.16 123.46C645.56 97.93 661.42 78.8 676.5 65.1C677.13 66.9 678.07 68.85 679.4 70.32C679.4 70.32 678.61 67.17 678.57 63.25C699.03 45.23 717.49 37.25 718.03 36.86C717.61 37.33 705.53 53.73 696.02 86.62Z" fill="#50BB7A"/>
<path d="M647.75 158.46C647.75 158.46 664.09 87.04 720 34.19C720 34.19 705.9 55.62 701.13 80.52C701.13 80.52 689.64 89.69 678.98 93.8C678.98 93.8 694.59 89.02 699.61 86.6C699.61 86.6 690.47 112.52 689.33 129.33C689.33 129.33 679.81 140.45 661.57 145.09C661.57 145.09 671.46 146.71 687.49 142.07C687.49 142.07 677.05 153.02 656.03 159.71C647.95 162.28 645.67 167.63 645.67 167.63L647.75 158.46Z" fill="url(#paint0_linear_1_27)"/>
<path d="M679.32 153.1C673.37 157.94 661.98 160.94 656.56 163.19C651.66 165.22 649.27 168.68 648.21 170.82C647.49 171.87 647.45 172.72 647.45 172.72C651.94 168.51 665.22 166.54 665.22 166.54C660.78 165.98 657.54 166.32 655.35 166.84C656.73 166.16 658.35 165.47 660.31 164.72C677.25 158.23 679.32 153.1 679.32 153.1Z" fill="#50BB7A"/>
<path d="M687.62 77.32C687.62 77.32 694.69 76.61 699.79 72.59C699.79 72.59 694.7 81.36 682.07 86.59C682.56 86.49 690.57 84.67 695.7 81.7C695.7 81.7 687.86 89.06 677.35 93.48C677.35 93.48 669.2 106.49 663.75 123.26C663.75 123.26 676.69 121.22 685.97 115.55C685.74 115.92 678.02 127.9 661.12 134.24C661.12 134.24 671.7 133.44 677.72 130.52C677.26 130.83 669.62 135.12 658.54 138.63C658.54 138.63 655.09 148.02 653.23 156.04C653.23 156.04 655.48 157.17 664 154.16C678.84 148.91 687.03 142.37 687.48 142.07C687.08 142.49 676.63 153.14 656.03 159.7C648.2 162.19 645.82 167.28 645.68 167.61L647.75 158.46C647.75 158.46 664.09 87.06 719.98 34.2C719.45 34.78 703.22 50.67 687.62 77.32Z" fill="#50BB7A"/>
<path d="M184.43 179.32H138.64V179.58C139.94 189.44 147.33 196.83 155.89 196.96C161.21 196.7 166.66 194.5 170.42 190.73L179.76 196.31C177.43 198.9 174.83 201.11 171.85 202.93C167.31 205.66 161.73 207.08 156.15 207.34C148.37 207.34 141.23 204.1 136.04 198.26C131.37 193.2 128.52 186.72 128 179.58C127.87 178.67 127.87 177.76 127.87 176.86C127.87 174.52 128.13 172.19 128.65 169.86C129.82 164.41 132.41 159.48 136.05 155.46C141.24 149.75 148.5 146.51 156.16 146.51C163.94 146.51 171.08 149.75 176.4 155.46C180.03 159.48 182.76 164.41 183.79 169.86C184.69 175.17 184.56 178.15 184.43 179.32ZM172.76 169.98L172.63 169.72C170.04 162.07 163.42 156.88 156.16 156.88C149.03 156.88 142.41 162.07 139.68 169.72L139.55 169.98H172.76Z" fill="#50BB7A"/>
<path d="M198.18 113.94H209.86V195.02H260.45V206.31H198.18V113.94Z" fill="#50BB7A"/>
<path d="M272.25 129.89C272.25 125.87 275.49 122.63 279.65 122.63C283.67 122.63 286.91 125.87 286.91 129.89C286.91 133.91 283.67 137.28 279.65 137.28C275.49 137.29 272.25 133.91 272.25 129.89ZM274.06 146.89H285.22V206.3H274.06V146.89Z" fill="#50BB7A"/>
<path d="M56.68 114.9H84.96C100.28 114.9 115.73 120.66 115.73 137.68C115.73 148.42 109.44 155.62 99.49 158.63V158.89C111.41 159.94 120.44 169.5 120.44 181.67C120.44 202.1 101.45 207.59 84.3 207.59H56.67V114.9H56.68ZM67.68 154.18H82.87C93.21 154.18 103.95 151.96 103.95 139.12C103.95 127.73 94 125.11 84.05 125.11H67.68V154.18ZM67.68 197.39H86.27C97.01 197.39 108.66 193.07 108.66 181.28C108.66 168.32 97.66 164.39 86.53 164.39H67.67V197.39H67.68Z" fill="#50BB7A"/>
<path d="M84.31 208.59H55.69V113.9H84.97C104.86 113.9 116.73 122.79 116.73 137.68C116.73 147.25 111.76 154.66 102.96 158.43C113.71 160.9 121.45 170.37 121.45 181.67C121.44 198.78 107.91 208.59 84.31 208.59ZM57.68 206.6H84.31C97.43 206.6 119.45 203.36 119.45 181.67C119.45 170.07 111.02 160.9 99.41 159.88L98.5 159.8V157.89L99.21 157.68C109.22 154.65 114.74 147.55 114.74 137.68C114.74 117.46 91.95 115.89 84.97 115.89H57.68V206.6ZM86.27 198.38H66.68V163.39H86.53C101.23 163.39 109.65 169.91 109.65 181.28C109.66 193.9 97.06 198.38 86.27 198.38ZM68.67 196.39H86.27C96.61 196.39 107.66 192.42 107.66 181.28C107.66 167.45 94.42 165.39 86.53 165.39H68.67V196.39ZM82.87 155.17H66.69V124.11H84.05C97.92 124.11 104.95 129.16 104.95 139.12C104.94 155.17 88.33 155.17 82.87 155.17ZM68.67 153.18H82.86C96.75 153.18 102.94 148.84 102.94 139.12C102.94 130.36 96.76 126.11 84.03 126.11H68.66V153.18H68.67Z" fill="#50BB7A"/>
<path d="M296.49 108.44H306.59V172.39L334.16 145.73H348.53L319.28 173.3L351.51 206.31H336.62L306.59 174.47V206.31H296.49V108.44Z" fill="#50BB7A"/>
<path d="M353.86 207.3H336.18L307.58 176.97V207.3H295.49V107.45H307.58V170.04L333.75 144.73H351.03L320.69 173.33L353.86 207.3ZM337.04 205.3H349.13L317.84 173.26L346.01 146.71H334.55L306.95 173.4L337.04 205.3ZM297.48 205.3H305.59V109.43H297.48V205.3Z" fill="#50BB7A"/>
<defs>
<linearGradient id="paint0_linear_1_27" x1="661.45" y1="166.914" x2="696.426" y2="66.5765" gradientUnits="userSpaceOnUse">
<stop stop-color="#50BB7A"/>
<stop offset="1" stop-color="#9BD2A9"/>
</linearGradient>
</defs>
</svg>
