<?xml version="1.0" standalone="no"?>
<!DOCTYPE svg PUBLIC "-//W3C//DTD SVG 1.1//EN" "http://www.w3.org/Graphics/SVG/1.1/DTD/svg11.dtd">
<!--Generator: Xara Designer (www.xara.com), SVG filter version: 6.6.0.1-->
<svg fill="none" fill-rule="evenodd" stroke="black" stroke-width="0.501" stroke-linejoin="bevel" stroke-miterlimit="10" font-family="Times New Roman" font-size="16" style="font-variant-ligatures:none" xmlns:xlink="http://www.w3.org/1999/xlink" xmlns="http://www.w3.org/2000/svg" version="1.1" overflow="visible" viewBox="484.293 -628.592 220.443 248.824">
 <defs>
  <linearGradient id="LinearGradient" gradientUnits="userSpaceOnUse" x1="0" y1="0" x2="108.282" y2="0" gradientTransform="translate(559.165 608.839) rotate(-90.944)">
   <stop offset="0" stop-color="#2fe08c"/>
   <stop offset="1" stop-color="#21d37e"/>
  </linearGradient>
 </defs>
 <g id="Layer 1" transform="scale(1 -1)">
  <path d="M 555.641,392.731 C 593.61,392.731 624.389,390.235 624.389,387.156 C 624.389,384.078 593.61,381.583 555.641,381.583 C 517.673,381.583 486.895,384.078 486.895,387.156 C 486.895,390.235 517.673,392.731 555.641,392.731 Z" stroke="none" fill="#c7d1ea" stroke-width="0.609" stroke-linejoin="miter" marker-start="none" marker-end="none"/>
  <g id="Group" stroke-linejoin="miter" stroke="none">
   <path d="M 686.638,464.791 C 683.789,462.767 676.935,461.53 668.284,461.905 C 651.001,462.758 626.847,470.657 615.461,494.151 C 614.811,495.458 614.266,496.748 613.74,498.145 C 617.104,501.933 626.559,512.752 630.065,516.735 C 630.54,516.327 631.44,515.848 632.657,515.315 C 635.709,514.037 640.56,512.453 645.996,511.098 C 654.554,508.888 664.508,507.204 670.072,507.897 C 673.675,507.942 677.331,508.304 681.039,508.983 C 694.855,511.44 702.94,510.943 703.525,504.744 C 704.459,496.09 698.647,473.326 686.638,464.791 Z" fill="#21d37e" stroke-width="0.683" marker-start="none" marker-end="none"/>
   <path d="M 668.391,461.887 C 651.106,462.741 626.952,470.638 615.567,494.132 L 632.764,515.298 C 635.815,514.019 640.667,512.436 646.102,511.08 C 646.102,511.08 635.797,477.203 668.391,461.887 Z" fill="#20b26c" stroke-width="0.683" marker-start="none" marker-end="none"/>
   <path d="M 660.021,461.995 C 657.162,462.479 654.339,463.174 651.322,464.011 C 638.457,467.822 621.246,476.832 613.05,497.934 C 612.892,498.289 612.946,498.605 613.193,498.782 L 629.518,517.371 C 629.801,517.76 630.349,517.775 630.737,517.492 C 634.103,514.853 660.99,507.5 671.466,508.887 L 672.19,508.896 C 675.898,508.923 677.598,509.24 681.095,509.954 C 692.542,511.94 699.04,511.713 702.336,509.303 C 703.693,508.31 704.518,506.755 704.656,504.989 C 705.516,495.911 699.441,472.864 687.307,464.241 L 687.307,464.241 C 683.469,461.515 672.836,459.827 660.021,461.995 M 614.817,498.072 C 622.961,477.958 639.362,469.301 651.819,465.67 C 667.488,461.058 682.13,462.613 686.216,465.517 L 686.216,465.517 C 698.102,473.964 703.613,496.887 702.872,504.746 C 702.77,506.071 702.189,507.15 701.22,507.859 C 698.417,509.967 692.114,510.053 681.338,508.171 C 677.753,507.579 674.961,507.18 671.253,507.152 C 661.116,505.818 635.951,512.253 630.327,515.71 L 614.817,498.072 Z" fill="#072032" stroke-width="0.683" marker-start="none" marker-end="none"/>
   <path d="M 582.411,391.718 C 582.887,390.664 583.774,390.057 584.749,389.885 C 585.29,389.8 585.826,389.823 586.355,390.062 C 591.738,392.338 596.759,390.621 596.865,390.626 C 596.865,390.626 596.865,390.626 596.973,390.631 C 601.494,388.031 603.284,383.917 603.392,383.921 C 603.504,383.818 603.513,383.604 603.624,383.501 C 604.432,382.247 605.958,381.774 607.436,382.376 C 609.018,383.09 609.694,384.84 608.98,386.421 C 608.864,386.63 607.792,389.057 605.309,391.745 C 605.197,391.847 605.086,391.949 604.973,392.052 C 606.597,391.8 608.673,391.03 610.796,389.187 C 611.243,388.777 611.788,388.585 612.331,388.502 C 613.306,388.328 614.365,388.696 615.078,389.588 C 615.284,389.812 615.485,390.143 615.581,390.363 C 616.067,391.566 615.792,392.951 614.785,393.876 C 610.097,397.864 605.44,398.63 601.806,398.15 C 602.277,402.149 602.086,406.548 602.086,406.548 C 601.102,406.936 600.336,407.225 599.576,407.406 C 595.023,408.284 593.325,405.307 593.325,405.307 C 593.325,405.307 593.502,401.23 594.416,397.506 C 591.719,397.712 588.07,397.554 584.166,395.879 C 582.482,395.054 581.811,393.198 582.411,391.718 Z" fill="#f9c710" stroke-width="0.685" marker-start="none" marker-end="none"/>
   <path d="M 598.485,405.317 L 599.529,396.117 C 599.529,396.117 609.574,397.52 615.475,390.359 L 615.475,390.359 C 615.96,391.561 615.685,392.948 614.677,393.871 C 609.988,397.86 605.331,398.626 601.698,398.146 C 602.169,402.144 601.979,406.544 601.979,406.544 C 600.993,406.931 600.23,407.22 599.469,407.403 L 598.485,405.317 Z" fill="#ffd95f" stroke-width="0.685" marker-start="none" marker-end="none"/>
   <path d="M 603.517,383.496 C 604.324,382.242 605.85,381.77 607.328,382.372 C 608.909,383.085 609.586,384.834 608.873,386.417 C 608.756,386.626 607.683,389.052 605.201,391.74 C 605.09,391.842 604.982,391.838 604.87,391.941 C 604.876,391.833 607.678,384.215 603.517,383.496 Z" fill="#ffd95f" stroke-width="0.685" marker-start="none" marker-end="none"/>
   <path d="M 606.133,381.261 C 604.857,381.261 603.689,381.867 602.948,382.974 C 602.813,383.134 602.749,383.299 602.709,383.406 C 602.709,383.408 602.708,383.41 602.708,383.411 C 602.614,383.529 602.541,383.662 602.474,383.784 C 602.015,384.62 600.619,387.162 597.646,389.202 C 597.032,389.623 596.338,389.929 595.579,390.109 C 592.599,390.818 589.691,390.545 586.686,389.274 C 586.076,388.999 585.391,388.92 584.617,389.039 C 583.273,389.278 582.192,390.125 581.631,391.367 C 581.627,391.376 581.622,391.386 581.618,391.396 C 580.823,393.353 581.775,395.659 583.789,396.648 C 586.781,397.932 589.976,398.523 593.331,398.421 C 592.626,401.824 592.475,405.117 592.469,405.27 C 592.463,405.431 592.501,405.591 592.582,405.731 C 592.663,405.874 594.639,409.227 599.738,408.247 C 600.598,408.042 601.415,407.731 602.399,407.344 C 602.714,407.22 602.926,406.923 602.941,406.586 C 602.948,406.419 603.098,402.793 602.765,399.102 C 606.048,399.304 610.604,398.556 615.339,394.526 C 616.609,393.363 617.008,391.611 616.375,390.043 C 616.248,389.756 616.007,389.335 615.709,389.01 C 614.868,387.96 613.505,387.424 612.182,387.66 C 611.403,387.779 610.736,388.081 610.218,388.556 C 609.307,389.346 608.42,389.912 607.601,390.315 C 608.313,389.355 609.05,388.212 609.687,386.917 L 609.731,386.83 C 610.661,384.774 609.794,382.502 607.788,381.597 C 607.233,381.371 606.673,381.261 606.133,381.261 M 604.307,384.017 C 604.321,383.999 604.333,383.982 604.344,383.963 C 604.939,383.037 606.028,382.724 607.113,383.169 C 608.228,383.672 608.71,384.913 608.209,386.049 C 608.195,386.078 608.176,386.115 608.153,386.162 C 607.077,388.344 605.69,390.067 604.704,391.137 L 604.396,391.42 C 604.118,391.674 604.039,392.081 604.202,392.421 C 604.364,392.761 604.731,392.953 605.104,392.896 C 606.616,392.662 608.927,391.941 611.356,389.832 C 611.642,389.572 611.997,389.417 612.461,389.345 C 613.187,389.218 613.925,389.517 614.412,390.123 C 614.581,390.31 614.734,390.561 614.8,390.708 C 615.151,391.58 614.923,392.588 614.207,393.243 C 609.433,397.305 604.886,397.693 601.917,397.3 C 601.656,397.267 601.393,397.355 601.204,397.54 C 601.016,397.726 600.925,397.987 600.955,398.25 C 601.316,401.313 601.281,404.66 601.249,405.956 C 600.556,406.223 599.951,406.437 599.376,406.574 C 596.153,407.194 594.626,405.624 594.195,405.064 C 594.253,404.091 594.498,400.754 595.246,397.71 C 595.313,397.443 595.246,397.163 595.068,396.954 C 594.893,396.744 594.626,396.627 594.352,396.654 C 590.854,396.921 587.54,396.395 584.502,395.094 C 583.338,394.521 582.751,393.181 583.199,392.055 C 583.529,391.334 584.132,390.862 584.898,390.726 C 585.325,390.662 585.681,390.697 586.002,390.842 C 589.374,392.268 592.63,392.569 595.977,391.774 C 596.94,391.544 597.827,391.154 598.614,390.613 C 601.921,388.342 603.466,385.533 603.973,384.609 C 604.003,384.555 604.028,384.509 604.047,384.474 C 604.197,384.306 604.264,384.128 604.307,384.017 M 602.734,383.377 C 602.753,383.353 602.779,383.323 602.815,383.289 L 602.816,383.291 C 602.787,383.319 602.76,383.347 602.734,383.377 M 604.203,384.132 C 604.203,384.131 604.205,384.131 604.205,384.131 C 604.205,384.131 604.203,384.131 604.203,384.132 Z" fill="#ba5d08" stroke-width="0.685" marker-start="none" marker-end="none"/>
   <path d="M 531.465,386.118 C 530.864,385.125 529.809,384.648 528.839,384.714 C 528.303,384.691 527.757,384.883 527.313,385.185 C 522.339,388.303 517.106,387.538 517.106,387.538 C 517.106,387.538 517.106,387.538 516.997,387.533 C 512.131,385.709 509.607,381.945 509.607,381.945 C 509.504,381.832 509.401,381.721 509.299,381.608 C 508.273,380.488 506.668,380.312 505.45,381.119 C 504.014,382.024 503.608,383.941 504.513,385.379 C 504.616,385.491 506.127,387.814 509.039,390.09 C 509.142,390.202 509.244,390.314 509.351,390.319 C 507.63,390.353 505.611,389.834 503.197,388.439 C 502.675,388.094 502.143,387.964 501.601,388.047 C 500.632,388.112 499.642,388.607 499.064,389.55 C 498.942,389.867 498.822,390.184 498.705,390.394 C 498.434,391.673 498.915,392.983 500.068,393.679 C 505.306,396.81 510.143,396.803 513.629,395.773 C 513.775,399.864 514.666,404.095 514.666,404.095 C 515.623,404.353 516.583,404.501 517.339,404.426 C 521.958,404.52 523.175,401.24 523.175,401.24 C 523.175,401.24 522.275,397.223 520.814,393.72 C 523.51,393.513 527.093,392.702 530.63,390.489 C 531.964,389.473 532.371,387.555 531.465,386.118 Z" fill="#f9c710" stroke-width="0.685" marker-start="none" marker-end="none"/>
   <path d="M 517.867,402.192 L 515.351,393.268 C 515.351,393.268 505.652,396.287 498.608,390.176 L 498.608,390.176 C 498.337,391.454 498.817,392.765 499.969,393.459 C 505.209,396.59 510.047,396.585 513.532,395.554 C 513.677,399.646 514.569,403.877 514.569,403.877 C 515.526,404.133 516.487,404.282 517.242,404.209 L 517.867,402.192 Z" fill="#ffd95f" stroke-width="0.685" marker-start="none" marker-end="none"/>
   <path d="M 509.304,381.501 C 508.278,380.382 506.672,380.205 505.455,381.012 C 504.018,381.918 503.613,383.834 504.518,385.271 C 504.621,385.384 506.132,387.706 509.043,389.983 C 509.151,389.987 509.253,390.099 509.361,390.105 C 509.361,390.105 505.372,382.944 509.304,381.501 Z" fill="#ffd95f" stroke-width="0.685" marker-start="none" marker-end="none"/>
   <path d="M 507.085,379.768 C 506.357,379.768 505.625,379.977 504.977,380.406 C 503.167,381.548 502.624,383.988 503.789,385.834 C 503.816,385.877 503.847,385.917 503.881,385.956 L 503.911,386.003 C 504.761,387.18 505.665,388.184 506.51,389.011 C 505.59,388.715 504.626,388.278 503.624,387.699 C 502.975,387.269 502.25,387.089 501.508,387.197 C 500.192,387.297 499.007,388.007 498.334,389.103 C 498.306,389.149 498.282,389.196 498.265,389.245 C 498.161,389.517 498.044,389.823 497.957,389.978 C 497.916,390.053 497.885,390.134 497.868,390.217 C 497.511,391.906 498.2,393.551 499.625,394.411 C 505.123,397.696 509.95,397.493 512.826,396.861 C 513.063,400.609 513.795,404.113 513.829,404.272 C 513.895,404.588 514.132,404.838 514.443,404.922 C 515.594,405.23 516.58,405.352 517.37,405.282 C 517.426,405.283 517.482,405.283 517.536,405.283 C 522.529,405.283 523.918,401.693 523.976,401.537 C 524.034,401.382 524.046,401.213 524.008,401.053 C 523.976,400.902 523.245,397.674 522.026,394.454 C 524.476,394.136 527.752,393.299 531.082,391.215 C 531.105,391.201 531.125,391.187 531.147,391.171 C 532.854,389.87 533.311,387.455 532.192,385.67 C 531.465,384.475 530.176,383.78 528.828,383.859 C 528.159,383.842 527.443,384.061 526.83,384.481 C 524.018,386.242 521.077,386.691 519.113,386.757 C 517.871,386.796 516.654,386.526 515.599,385.97 C 512.163,384.161 510.335,381.495 510.318,381.467 C 510.293,381.433 510.267,381.399 510.237,381.368 L 509.93,381.033 C 509.169,380.2 508.132,379.768 507.085,379.768 M 505.219,384.896 C 504.581,383.851 504.885,382.487 505.906,381.844 C 506.808,381.244 507.939,381.391 508.669,382.186 L 508.937,382.48 C 509.244,382.92 511.214,385.596 514.803,387.484 C 516.119,388.177 517.63,388.519 519.168,388.465 C 521.344,388.394 524.604,387.893 527.767,385.912 C 528.116,385.673 528.478,385.553 528.801,385.57 C 528.834,385.571 528.866,385.571 528.896,385.568 C 529.619,385.523 530.339,385.911 530.734,386.562 C 530.736,386.566 530.738,386.571 530.742,386.575 C 531.393,387.609 531.127,389.012 530.14,389.788 C 526.564,392.013 523.061,392.69 520.749,392.867 C 520.475,392.888 520.228,393.039 520.084,393.272 C 519.941,393.507 519.918,393.796 520.024,394.048 C 521.223,396.923 522.046,400.19 522.276,401.15 C 521.937,401.785 520.672,403.657 517.357,403.572 C 517.323,403.572 517.289,403.573 517.255,403.576 C 516.775,403.626 516.141,403.561 515.401,403.396 C 515.164,402.152 514.596,398.883 514.485,395.743 C 514.476,395.478 514.346,395.233 514.13,395.079 C 513.916,394.924 513.641,394.877 513.388,394.952 C 511.008,395.657 506.176,396.331 500.506,392.943 C 499.735,392.478 499.363,391.618 499.523,390.678 C 499.63,390.46 499.73,390.205 499.833,389.934 C 500.23,389.336 500.906,388.952 501.661,388.9 C 501.686,388.899 501.709,388.896 501.733,388.892 C 502.068,388.841 502.38,388.923 502.728,389.153 C 505.159,390.56 507.326,391.199 509.369,391.173 C 509.83,391.164 510.201,390.791 510.208,390.332 C 510.214,389.975 509.999,389.663 509.688,389.531 C 509.682,389.526 509.677,389.519 509.672,389.513 C 509.639,389.479 509.605,389.446 509.567,389.417 C 508.435,388.531 506.776,387.048 505.3,385.001 C 505.269,384.96 505.242,384.926 505.219,384.896 M 509.395,389.465 C 509.394,389.465 509.394,389.465 509.395,389.465 Z" fill="#ba5d08" stroke-width="0.685" marker-start="none" marker-end="none"/>
   <path d="M 577.131,414.28 C 578.033,413.352 578.933,412.423 579.935,411.606 C 582.506,409.353 584.942,407.739 587.357,406.554 L 587.357,406.554 C 600.957,400.371 617.884,411.642 624.795,430.755 C 631.034,448.012 635.266,466.902 638.091,481.106 L 638.091,481.106 C 638.888,485.012 639.486,488.586 640.102,491.731 L 640.102,491.731 C 640.63,494.44 641.063,496.824 641.409,498.774 L 577.347,414.289 L 577.131,414.28 Z" fill="#21d37e" stroke-width="0.683" marker-start="none" marker-end="none"/>
   <path d="M 493.822,476.029 C 494.349,461.429 496.596,441.855 499.781,427.91 C 504.301,408.002 514.615,395.763 529.068,399.617 L 529.068,399.617 C 532.044,400.39 539.436,403.507 544.861,409.762 C 545.78,410.877 546.7,411.992 547.4,413.206 L 547.503,413.317 L 496.454,489.689 L 493.585,493.864 L 492.437,495.534 C 492.555,492.852 493.822,476.029 493.822,476.029 Z" fill="#21d37e" stroke-width="0.683" marker-start="none" marker-end="none"/>
   <path d="M 603.249,600.217 L 608.268,596.027 L 632.363,575.895 L 640.839,568.845 L 640.839,568.845 C 646.149,572.838 650.672,579.936 649.687,585.269 C 649.398,586.976 648.695,587.717 647.3,587.656 C 645.799,587.59 644.108,587.691 642.741,586.988 L 642.741,586.988 C 641.584,586.4 640.748,585.827 640.641,585.823 C 640.641,585.823 640.842,586.154 641.141,586.704 C 643.04,590.011 648.901,601.124 646.181,606.811 C 644.412,610.39 641.221,609.606 638.6,608.095 C 636.29,606.812 634.438,604.904 634.335,604.792 C 636.342,608.105 638.57,615.147 638.548,620.629 C 638.561,627.724 635.746,631.364 629.227,623.018 C 625.863,618.788 621.82,615.751 618.521,612.491 C 610.261,604.607 603.249,600.217 603.249,600.217 Z" fill="#21d37e" stroke-width="0.683" marker-start="none" marker-end="none"/>
   <path d="M 641.033,586.699 C 642.932,590.006 648.792,601.12 646.072,606.806 C 644.305,610.384 641.114,609.601 638.491,608.089 C 638.604,607.987 646.497,606.933 641.033,586.699 Z" fill="#1cb66c" stroke-width="0.683" marker-start="none" marker-end="none"/>
   <path d="M 637.397,573.855 L 640.844,568.737 C 646.153,572.73 650.762,579.266 649.777,584.599 C 649.488,586.306 648.807,587.849 647.411,587.789 L 642.745,586.88 L 642.745,586.88 C 642.633,586.983 648.487,583.367 637.397,573.855 Z" fill="#1cb66c" stroke-width="0.683" marker-start="none" marker-end="none"/>
   <path d="M 603.249,600.217 C 603.244,600.325 603.244,600.325 603.249,600.217 C 603.351,600.33 603.351,600.33 603.249,600.217 C 603.351,600.33 603.351,600.33 603.459,600.334 L 603.459,600.334 C 603.459,600.334 603.566,600.338 603.561,600.446 L 603.561,600.446 C 603.561,600.446 603.664,600.557 603.772,600.562 L 603.772,600.562 C 603.879,600.567 603.875,600.675 603.981,600.679 L 603.981,600.679 C 604.084,600.791 604.295,600.907 604.504,601.024 L 604.504,601.024 C 604.607,601.136 604.714,601.14 604.817,601.253 L 604.817,601.253 C 605.027,601.369 605.233,601.594 605.55,601.714 L 605.55,601.714 C 608.261,603.66 613.155,607.313 618.525,612.383 L 618.525,612.383 C 621.935,615.542 625.869,618.679 629.227,623.018 C 635.746,631.364 639.116,627.283 639.097,620.294 L 637.643,620.2 C 637.643,620.2 634.612,625.66 630.329,617.841 C 629.628,616.627 621.743,597.687 632.397,580.089 C 632.51,579.986 632.513,579.879 632.63,579.668 C 634.827,576.109 634.439,575.125 632.369,575.786 L 608.275,595.92 L 603.249,600.217 L 603.249,600.217 Z" fill="#20b26c" stroke-width="0.683" marker-start="none" marker-end="none"/>
   <path d="M 639.505,567.389 C 639.291,567.379 639.072,567.478 638.852,567.576 L 602.693,600.623 C 602.469,600.828 602.352,601.039 602.446,601.365 C 602.432,601.686 602.638,601.911 602.848,602.028 C 602.95,602.14 617.324,610.289 629.195,624.135 C 632.675,628.156 635.413,629.458 637.303,628.034 C 640.746,625.495 639.517,614.154 636.807,607.264 C 638.795,608.532 641.425,609.829 643.708,609.284 C 645.228,608.92 646.456,607.898 647.174,606.209 C 649.45,600.825 644.793,591.699 642.19,587.287 C 644.196,588.126 646.851,588.886 648.61,587.996 C 649.266,587.701 650.163,586.88 650.447,585.281 C 651.236,579.51 645.567,571.416 639.823,567.511 C 639.828,567.404 639.72,567.398 639.505,567.389 M 604.822,601.145 L 639.637,569.33 C 644.639,572.987 649.59,580.297 648.95,585.107 C 648.801,586.069 648.357,586.372 648.026,586.572 C 646.379,587.361 642.474,585.686 640.483,584.525 C 640.169,584.297 639.736,584.385 639.4,584.693 C 639.172,585.006 639.045,585.431 639.353,585.766 C 639.456,585.879 648.546,599.388 645.802,605.612 C 645.323,606.774 644.538,607.492 643.563,607.664 C 640.847,608.3 636.58,605.104 635.239,603.756 C 634.932,603.42 634.39,603.503 634.059,603.704 C 633.724,604.013 633.706,604.441 633.906,604.773 C 637.237,609.755 639.398,624.361 636.398,626.597 C 635.395,627.413 633.198,626.029 630.534,623.01 C 620.301,611.063 608.277,603.231 604.822,601.145 Z" fill="#072032" stroke-width="0.683" marker-start="none" marker-end="none"/>
   <path d="M 530.721,596.854 L 526.088,592.138 L 504.052,569.788 L 496.33,561.928 L 496.33,561.928 C 490.586,565.441 484.779,572.93 485.297,578.327 C 485.437,580.053 486.589,580.749 487.984,580.809 C 489.486,580.874 491.339,580.309 492.869,579.73 L 492.869,579.73 C 494.073,579.246 495.062,578.751 495.062,578.751 C 495.062,578.751 494.833,579.063 494.487,579.586 C 492.314,582.61 485.405,593.168 487.621,599.069 C 488.966,602.783 492.32,602.283 495.063,601.005 C 497.475,599.928 499.485,598.187 499.592,598.192 C 497.312,601.21 495.301,607.896 494.854,613.251 C 494.224,620.32 496.054,625.237 503.374,617.599 C 507.091,613.675 511.006,610.19 514.676,607.339 C 523.252,600.507 530.721,596.854 530.721,596.854 Z" fill="#21d37e" stroke-width="0.683" marker-start="none" marker-end="none"/>
   <path d="M 494.263,579.791 C 492.09,582.815 485.181,593.373 487.399,599.274 C 488.742,602.988 492.096,602.488 494.838,601.21 C 494.838,601.21 487.072,599.368 494.263,579.791 Z" fill="#1cb66c" stroke-width="0.683" marker-start="none" marker-end="none"/>
   <path d="M 499.208,567.427 L 496.217,562.03 C 490.474,565.544 484.667,573.032 485.185,578.43 C 485.325,580.156 486.477,580.852 487.873,580.912 L 492.756,579.832 L 492.756,579.832 C 492.645,579.936 487.233,575.832 499.208,567.427 Z" fill="#1cb66c" stroke-width="0.683" marker-start="none" marker-end="none"/>
   <path d="M 530.721,596.854 C 530.612,596.849 530.612,596.849 530.721,596.854 C 530.612,596.849 530.612,596.849 530.721,596.854 C 530.608,596.958 530.608,596.958 530.501,596.952 L 530.501,596.952 C 530.501,596.952 530.394,596.948 530.389,597.055 L 530.389,597.055 C 530.389,597.055 530.277,597.158 530.169,597.152 L 530.169,597.152 C 530.063,597.147 530.058,597.255 529.951,597.25 L 529.951,597.25 C 529.838,597.353 529.621,597.451 529.401,597.549 L 529.401,597.549 C 529.288,597.652 529.181,597.647 529.069,597.749 L 529.069,597.749 C 528.85,597.848 528.626,598.053 528.299,598.146 L 528.299,598.146 C 525.436,599.742 520.243,602.957 514.346,607.539 L 514.346,607.539 C 510.674,610.39 506.76,613.875 503.041,617.799 C 495.83,625.442 493.894,620.519 494.522,613.452 L 494.522,613.452 C 494.522,613.452 497.07,619.152 502.01,611.842 C 502.813,610.694 512.524,592.516 503.542,574.065 C 503.439,573.953 503.445,573.847 503.346,573.627 C 501.466,569.89 502.045,568.947 503.943,569.783 L 525.979,592.133 L 530.721,596.854 L 530.721,596.854 Z" fill="#20b26c" stroke-width="0.683" marker-start="none" marker-end="none"/>
   <path d="M 496.256,561.172 C 496.041,561.161 495.933,561.157 495.821,561.26 C 489.859,564.871 483.823,572.673 484.322,578.499 C 484.467,580.119 485.293,580.907 486.026,581.368 C 487.705,582.301 490.42,581.667 492.497,580.897 C 489.623,585.18 484.505,594.096 486.633,599.565 C 487.309,601.313 488.443,602.437 489.933,602.824 C 492.162,603.46 494.899,602.287 496.888,601.085 C 493.908,607.835 492.13,619.046 495.453,621.771 C 497.319,623.357 500.164,622.19 503.771,618.37 C 516.277,605.151 531.01,597.621 531.118,597.625 C 531.336,597.528 531.561,597.322 531.575,597.001 C 531.589,596.678 531.491,596.458 531.393,596.241 L 496.889,561.415 C 496.684,561.191 496.469,561.18 496.256,561.172 M 487.91,580.053 C 487.481,580.034 487.056,579.908 486.74,579.787 C 486.422,579.666 486.007,579.325 485.941,578.354 C 485.504,573.605 490.862,566.527 496.064,563.098 L 529.229,596.575 C 525.594,598.567 513.241,605.772 502.427,617.128 C 499.609,620.123 497.408,621.318 496.478,620.418 C 493.679,618.038 496.454,603.646 500.107,598.752 C 500.336,598.438 500.358,597.902 500.046,597.673 C 499.738,597.337 499.202,597.314 498.865,597.622 C 497.414,598.849 493.095,601.78 490.327,601.122 C 489.371,600.866 488.648,600.189 488.168,598.878 C 485.76,592.43 495.464,579.414 495.575,579.311 C 495.804,578.998 495.822,578.569 495.515,578.234 C 495.206,577.898 494.777,577.879 494.445,578.08 C 492.79,579.081 489.841,580.137 487.91,580.053 Z" fill="#072032" stroke-width="0.683" marker-start="none" marker-end="none"/>
   <path d="M 493.58,493.971 C 493.757,492.367 494.038,490.874 494.313,489.488 C 495.218,483.507 496.444,477.54 497.88,471.69 C 504.938,442.862 518.651,416.688 547.4,413.206 C 551.613,412.744 556.236,412.729 561.157,413.265 C 601.199,412.1 628.542,441.023 636.858,477.291 C 658.176,570.673 636.358,597.784 584.831,605.975 C 569.35,608.422 553.073,606.964 538.46,601.813 L 538.46,601.813 C 512.207,592.396 491.646,570.755 491.699,537.322 C 491.685,522.808 491.851,506.582 493.58,493.971 Z" stroke-width="0.683" marker-start="none" marker-end="none" fill="url(#LinearGradient)"/>
   <path d="M 493.822,476.029 C 494.349,461.429 496.596,441.855 499.781,427.91 C 504.301,408.002 514.615,395.763 529.068,399.617 L 529.068,399.617 C 532.044,400.39 539.436,403.507 544.861,409.762 C 517.116,392.647 505.416,419.445 502.287,437.048 C 501.136,443.771 499.289,456.592 497.88,471.688 C 497.308,477.469 496.827,483.576 496.45,489.796 C 495.156,509.736 494.759,531.22 497.158,547.772 C 502.088,582.818 537.831,601.463 538.46,601.813 C 512.207,592.396 491.646,570.755 491.699,537.322 C 491.679,522.916 491.847,506.689 493.688,493.976 L 492.54,495.647 C 492.555,492.852 493.822,476.029 493.822,476.029 Z" fill="#20b26c" stroke-width="0.683" marker-start="none" marker-end="none"/>
   <path d="M 641.33,498.127 C 641.222,498.122 641.222,498.122 641.114,498.118 C 640.681,498.207 640.341,498.621 640.43,499.056 C 647.224,538.16 644.811,564.072 632.904,580.756 C 623.748,593.583 608.362,601.3 584.658,605.001 C 559.218,609.056 532.424,602.196 514.905,587.245 C 500.287,574.785 492.546,557.462 492.46,537.14 C 492.446,522.627 493.837,493.057 493.85,492.735 C 493.869,492.306 493.34,492.134 492.91,492.115 L 492.91,492.115 C 492.482,492.096 492.173,492.082 492.154,492.512 C 492.14,492.834 490.728,522.552 490.744,537.065 C 490.81,557.818 498.749,575.578 513.781,588.379 C 531.716,603.67 558.935,610.657 584.916,606.517 C 609.166,602.624 624.883,594.706 634.268,581.568 C 646.402,564.571 648.943,538.235 642.063,498.589 C 642.072,498.375 641.758,498.146 641.33,498.127 Z" fill="#072032" stroke-width="0.683" marker-start="none" marker-end="none"/>
   <path d="M 610.376,587.465 C 627.281,587.465 640.986,573.762 640.986,556.855 C 640.986,539.949 627.281,526.244 610.376,526.244 C 593.469,526.244 579.764,539.949 579.764,556.855 C 579.764,573.762 593.469,587.465 610.376,587.465 Z" fill="#34f096" stroke-width="0.683" marker-start="none" marker-end="none"/>
   <path d="M 611.762,525.44 C 595.237,524.723 580.836,536.998 579.144,553.695 C 577.428,570.93 589.979,586.418 607.209,588.24 C 615.555,589.14 623.728,586.591 630.301,581.287 C 636.767,575.978 640.858,568.415 641.758,560.068 C 643.473,542.833 630.922,527.346 613.694,525.523 C 613.05,525.496 612.406,525.468 611.762,525.44 M 609.214,586.608 C 608.571,586.58 608.034,586.557 607.39,586.528 C 591.015,584.849 579.177,570.253 580.856,553.878 C 582.535,537.503 597.131,525.665 613.508,527.343 C 629.882,529.022 641.72,543.619 640.041,559.993 C 639.268,567.916 635.409,575.059 629.279,580.061 C 623.495,584.539 616.512,586.925 609.214,586.608 Z" fill="#072032" stroke-width="0.683" marker-start="none" marker-end="none"/>
   <path d="M 538.368,579.956 C 555.214,579.956 568.871,566.3 568.871,549.453 C 568.871,532.607 555.214,518.951 538.368,518.951 C 521.522,518.951 507.865,532.607 507.865,549.453 C 507.865,566.3 521.522,579.956 538.368,579.956 Z" fill="#34f096" stroke-width="0.683" marker-start="none" marker-end="none"/>
   <path d="M 539.615,518.224 C 531.998,517.893 524.472,520.361 518.561,525.265 C 512.095,530.575 508.01,538.03 507.218,546.381 L 507.218,546.381 C 506.317,554.728 508.758,562.897 514.068,569.362 C 519.378,575.828 526.833,579.915 535.184,580.707 C 552.418,582.423 567.799,569.868 569.51,552.741 C 571.226,535.506 558.67,520.124 541.542,518.414 C 540.904,518.278 540.26,518.252 539.615,518.224 M 537.083,579.07 C 536.547,579.047 535.903,579.018 535.367,578.995 C 527.445,578.221 520.409,574.368 515.407,568.238 C 510.405,562.107 508.053,554.373 508.93,546.563 L 508.93,546.563 C 509.703,538.641 513.557,531.605 519.687,526.604 C 525.817,521.602 533.552,519.251 541.361,520.127 C 557.63,521.8 569.467,536.397 567.798,552.559 C 566.152,568.182 552.535,579.74 537.083,579.07 Z" fill="#072032" stroke-width="0.683" marker-start="none" marker-end="none"/>
   <path d="M 587.772,564.379 C 591.937,576.872 605.441,583.625 617.936,579.461 C 630.429,575.297 637.182,561.792 633.018,549.299 C 628.853,536.805 615.349,530.051 602.856,534.216 C 590.361,538.38 583.607,551.885 587.772,564.379 Z" fill="#23d580" stroke-width="0.683" marker-start="none" marker-end="none"/>
   <path d="M 538.36,573.77 C 551.766,573.77 562.634,562.902 562.634,549.496 C 562.634,536.091 551.766,525.223 538.36,525.223 C 524.955,525.223 514.087,536.091 514.087,549.496 C 514.087,562.902 524.955,573.77 538.36,573.77 Z" fill="#23d580" stroke-width="0.683" marker-start="none" marker-end="none"/>
   <path d="M 601.4,583.366 C 596.581,585.415 593.53,588.829 594.402,591.018 C 595.382,593.21 600.001,593.304 604.819,591.255 C 609.639,589.206 612.69,585.792 611.817,583.602 C 610.833,581.517 606.219,581.318 601.4,583.366 Z" fill="#36f69b" stroke-width="0.683" marker-start="none" marker-end="none"/>
   <path d="M 545.396,580.721 C 540.773,578.262 536.159,578.062 534.993,580.162 C 533.933,582.266 536.677,585.933 541.301,588.392 C 545.924,590.85 550.539,591.049 551.705,588.949 C 552.87,586.851 550.02,583.179 545.396,580.721 Z" fill="#36f69b" stroke-width="0.683" marker-start="none" marker-end="none"/>
   <mask id="TranspMask">
    <rect x="-10%" y="-10%" width="120%" height="120%" fill="#ffffff" stroke="none"/>
   </mask>
   <g id="Group_1" stroke-width="0.683" fill="#2edf8b" mask="url(#TranspMask)">
    <path d="M 604.997,592.123 C 602.585,593.201 600.089,593.737 598.05,593.649 C 595.689,593.546 594.108,592.832 593.526,591.41 C 592.938,590.095 593.441,588.397 595.022,586.638 C 596.487,585.088 598.591,583.675 601.003,582.597 C 603.63,581.529 606.125,580.991 608.164,581.08 C 610.31,581.172 611.995,581.998 612.475,583.309 C 613.539,586.043 610.367,589.776 604.997,592.123 M 610.936,584.102 C 610.251,582.567 606.286,582.287 601.685,584.238 C 599.497,585.111 597.612,586.426 596.371,587.771 C 595.247,588.905 594.878,589.963 595.167,590.728 C 595.462,591.386 596.62,591.975 598.121,592.039 C 599.945,592.118 602.222,591.679 604.415,590.699 C 609.019,588.641 611.623,585.637 610.936,584.102 Z" marker-start="none" marker-end="none"/>
   </g>
   <path d="M 538.851,577.963 C 536.597,577.866 534.956,578.548 534.256,579.807 C 533.552,581.174 533.906,582.909 535.334,584.692 C 536.553,586.357 538.633,587.953 540.947,589.129 C 546.098,591.824 551.146,591.936 552.442,589.306 C 553.847,586.678 550.902,582.681 545.752,579.985 L 545.752,579.985 C 543.436,578.808 540.997,578.057 538.851,577.963 L 538.851,577.963 M 548.025,589.542 C 546.307,589.468 544.185,588.838 541.763,587.658 C 539.664,586.493 537.895,585.126 536.668,583.675 C 535.647,582.448 535.376,581.253 535.726,580.623 C 536.08,579.886 537.168,579.611 538.777,579.68 C 540.601,579.76 542.831,580.395 544.931,581.56 L 544.931,581.56 C 549.451,583.907 551.677,587.121 550.968,588.595 C 550.618,589.226 549.525,589.607 548.025,589.542 Z" fill="#2edf8b" stroke-width="0.683" marker-start="none" marker-end="none"/>
   <path d="M 570.799,572.577 C 571.018,570.007 572.82,568.151 572.82,568.151 C 572.82,568.151 574.336,570.366 574.121,572.829 C 573.903,575.4 572.101,577.257 572.101,577.257 C 572.101,577.257 570.579,575.148 570.799,572.577 Z" fill="#94f1c5" stroke-width="0.683" marker-start="none" marker-end="none"/>
   <path d="M 568.799,596.357 C 569.018,593.787 570.82,591.929 570.82,591.929 C 570.82,591.929 572.335,594.146 572.121,596.609 C 571.902,599.179 570.101,601.036 570.101,601.036 C 570.101,601.036 568.58,598.927 568.799,596.357 Z" fill="#94f1c5" stroke-width="0.683" marker-start="none" marker-end="none"/>
   <path d="M 580.454,597.83 C 579.916,595.334 581.092,593.019 581.092,593.019 C 581.092,593.019 583.168,594.722 583.71,597.111 C 584.246,599.608 583.071,601.922 583.071,601.922 C 583.071,601.922 580.99,600.326 580.454,597.83 Z" fill="#94f1c5" stroke-width="0.683" marker-start="none" marker-end="none"/>
   <path d="M 560.318,596.097 C 561.279,593.773 560.533,591.161 560.533,591.161 C 560.533,591.161 558.218,592.458 557.258,594.781 C 556.297,597.104 557.043,599.717 557.043,599.717 C 557.043,599.717 559.352,598.528 560.318,596.097 Z" fill="#94f1c5" stroke-width="0.683" marker-start="none" marker-end="none"/>
   <path d="M 576.072,584.848 C 575.857,582.366 577.247,580.06 577.247,580.06 C 577.247,580.06 579.1,581.968 579.422,584.456 C 579.637,586.938 578.246,589.243 578.246,589.243 C 578.246,589.243 576.287,587.33 576.072,584.848 Z" fill="#94f1c5" stroke-width="0.683" marker-start="none" marker-end="none"/>
   <path d="M 566.862,584.017 C 567.507,581.573 566.535,579.165 566.535,579.165 C 566.535,579.165 564.427,580.687 563.675,583.127 C 563.031,585.571 564.003,587.978 564.003,587.978 C 564.003,587.978 566.111,586.457 566.862,584.017 Z" fill="#94f1c5" stroke-width="0.683" marker-start="none" marker-end="none"/>
   <path d="M 547.609,413.322 C 547.609,413.322 560.639,412.811 564.82,413.101 C 564.82,413.101 576.269,414.351 577.762,414.631 C 577.762,414.631 597.469,428.709 605.143,460.004 C 611.457,485.436 611.253,502.518 605.897,507.018 C 597.186,514.487 587.044,502.973 586.278,493.372 C 586.278,493.372 586.559,514.134 573.147,513.552 C 563.163,513.226 564.066,492.408 564.066,492.408 C 564.066,492.408 560.494,515.259 548.443,508.071 C 534.813,500.062 562.638,436.12 547.609,413.322 Z" fill="#94f1c5" stroke-width="0.683" marker-start="none" marker-end="none"/>
   <path d="M 581.885,468.239 C 581.134,468.206 580.482,468.394 579.814,468.903 C 578.479,469.92 577.753,471.822 577.346,473.74 C 576.475,471.553 574.958,469.337 572.811,469.244 L 572.811,469.244 C 571.846,469.203 570.974,469.486 570.19,470.204 C 569.186,471.021 568.589,472.394 568.207,473.774 C 567.363,470.942 565.879,467.975 562.883,467.63 C 561.707,467.472 560.616,467.855 559.72,468.675 C 556.572,471.873 557.879,481.39 557.94,482.467 C 558.029,482.901 558.443,483.242 558.878,483.152 C 559.311,483.064 559.652,482.648 559.563,482.214 C 559.143,479.507 558.713,472.071 560.854,469.799 C 561.307,469.281 561.848,469.196 562.599,469.23 C 565.916,469.59 567.033,476.087 567.246,478.569 C 567.228,478.999 567.644,479.34 568.073,479.358 C 568.502,479.377 568.842,478.961 568.968,478.537 C 569.033,477.035 569.536,472.864 571.217,471.324 C 571.665,470.914 572.102,470.718 572.639,470.741 C 575.001,470.844 576.494,476.069 576.844,477.912 C 576.933,478.345 577.347,478.687 577.782,478.598 C 578.211,478.616 578.551,478.2 578.57,477.771 C 578.645,476.055 579.167,471.454 580.837,470.129 C 581.173,469.822 581.607,469.732 582.138,469.864 C 585.861,470.777 584.425,479.1 584.318,479.095 C 584.192,479.52 584.495,479.964 584.92,480.089 C 585.344,480.215 585.788,479.912 585.913,479.487 C 586.422,477.681 588.25,472.708 590.672,471.415 C 591.222,471.117 591.87,471.038 592.506,471.28 C 593.565,471.648 594.185,472.213 594.464,473.192 C 595.622,476.253 593.005,482.052 591.848,483.937 C 591.616,484.357 591.699,484.898 592.12,485.131 C 592.54,485.365 593.081,485.28 593.314,484.86 C 593.542,484.548 597.736,477.096 596.102,472.618 C 595.627,471.199 594.591,470.295 593.004,469.688 C 591.946,469.319 590.868,469.38 589.873,469.981 C 588.334,470.775 587.187,472.446 586.25,474.232 C 586.039,471.644 585.19,468.918 582.423,468.261 C 582.31,468.366 582.1,468.249 581.885,468.239 Z" fill="#21d37e" stroke-width="0.683" marker-start="none" marker-end="none"/>
   <path d="M 577.704,450.643 C 576.952,450.61 576.3,450.797 575.633,451.305 C 574.298,452.322 573.566,454.333 573.165,456.143 C 572.292,453.955 570.777,451.739 568.635,451.54 C 567.459,451.38 566.466,451.982 565.878,453.139 C 564.245,456.079 565.165,462.139 567.61,465.255 C 567.918,465.59 568.449,465.722 568.785,465.414 C 569.121,465.106 569.252,464.574 568.944,464.239 C 566.807,461.458 566.178,456.163 567.348,453.957 C 567.815,453.116 568.351,453.14 568.458,453.145 C 570.813,453.354 572.311,458.472 572.663,460.315 C 572.752,460.748 573.166,461.089 573.601,461.001 C 574.035,460.912 574.37,460.604 574.389,460.174 C 574.463,458.458 574.985,453.857 576.656,452.532 C 576.992,452.225 577.426,452.136 577.957,452.267 C 581.68,453.18 580.244,461.503 580.135,461.499 C 580.011,461.923 580.314,462.366 580.738,462.492 C 581.163,462.618 581.607,462.315 581.732,461.891 C 582.24,460.084 584.069,455.111 586.49,453.818 C 587.041,453.52 587.689,453.441 588.324,453.683 C 589.275,454.047 590.004,454.616 590.283,455.596 C 591.441,458.657 588.824,464.456 587.667,466.341 C 587.434,466.761 587.518,467.301 587.938,467.535 C 588.357,467.768 588.9,467.683 589.132,467.263 C 589.361,466.951 593.555,459.5 591.92,455.021 C 591.445,453.602 590.409,452.698 588.823,452.091 C 587.763,451.723 586.686,451.784 585.692,452.384 C 584.152,453.178 583.005,454.849 582.068,456.636 C 581.857,454.047 581.009,451.322 578.241,450.664 C 578.133,450.661 577.919,450.652 577.704,450.643 Z" fill="#21d37e" stroke-width="0.683" marker-start="none" marker-end="none"/>
   <path d="M 584.575,438.469 C 583.823,438.437 583.171,438.623 582.508,439.025 C 580.965,439.925 579.919,441.708 579.312,443.295 C 578.748,441.442 577.652,439.46 575.86,438.629 C 574.806,438.154 573.724,438.322 572.837,438.929 C 570.832,440.561 570.333,444.625 570.775,446.795 C 570.865,447.228 571.28,447.568 571.821,447.485 C 572.254,447.396 572.595,446.982 572.511,446.44 C 572.165,444.49 572.739,441.182 573.967,440.159 C 574.303,439.852 574.731,439.87 575.156,439.996 C 577.265,440.948 578.162,445.071 578.316,446.476 C 578.405,446.91 578.713,447.246 579.141,447.265 L 579.141,447.265 C 579.57,447.283 579.906,446.975 580.032,446.55 C 580.307,445.165 581.441,441.344 583.423,440.248 C 584.086,439.847 584.729,439.873 585.471,440.121 C 588.962,441.455 586.927,448.677 586.923,448.785 C 586.797,449.209 586.988,449.756 587.52,449.886 C 587.944,450.012 588.49,449.82 588.622,449.288 C 588.742,448.97 591.154,440.475 586.185,438.539 C 585.537,438.619 585.111,438.493 584.575,438.469 Z" fill="#21d37e" stroke-width="0.683" marker-start="none" marker-end="none"/>
   <path d="M 578.761,602.164 C 578.761,602.164 581.312,607.758 578.785,611.519 C 576.256,615.279 572.892,608.576 572.892,608.576 C 572.892,608.576 572.155,615.639 568.497,615.695 C 564.835,615.858 564.741,608.114 564.741,608.114 C 564.741,608.114 562.61,612.644 558.993,611.735 C 555.485,610.83 557.556,605.223 560.057,602.106 L 578.761,602.164 Z" fill="#2dde8a" stroke-width="0.683" marker-start="none" marker-end="none"/>
   <path d="M 560.057,601.25 C 559.807,601.25 559.558,601.36 559.39,601.571 C 557.33,604.138 555.67,608.02 556.485,610.47 C 556.843,611.544 557.636,612.268 558.78,612.564 C 561.161,613.164 562.96,611.876 564.096,610.589 C 564.351,612.301 564.919,614.464 566.176,615.652 C 566.838,616.278 567.66,616.591 568.536,616.55 C 571.4,616.507 572.737,613.225 573.325,610.907 C 574.202,612.108 575.475,613.425 576.888,613.515 C 577.58,613.555 578.597,613.331 579.494,611.997 C 582.257,607.887 579.651,602.056 579.538,601.81 C 579.343,601.38 578.837,601.191 578.406,601.387 C 577.977,601.583 577.786,602.09 577.982,602.52 C 578.005,602.571 580.301,607.73 578.074,611.043 C 577.537,611.842 577.128,611.815 576.996,611.809 C 575.912,611.74 574.39,609.653 573.655,608.192 C 573.485,607.854 573.11,607.668 572.737,607.736 C 572.365,607.805 572.08,608.111 572.04,608.488 C 571.855,610.242 570.854,614.804 568.484,614.842 C 568.034,614.864 567.682,614.724 567.35,614.411 C 565.961,613.101 565.612,609.415 565.595,608.105 C 565.59,607.707 565.311,607.365 564.921,607.281 C 564.532,607.195 564.136,607.392 563.966,607.753 C 563.949,607.789 562.085,611.631 559.201,610.908 C 558.629,610.761 558.28,610.451 558.108,609.933 C 557.524,608.173 559.009,604.779 560.722,602.643 C 561.018,602.274 560.96,601.737 560.591,601.441 C 560.434,601.312 560.245,601.25 560.057,601.25 Z" fill="#072032" stroke-width="0.683" marker-start="none" marker-end="none"/>
   <path d="M 565.375,543.96 C 566.756,539.398 568.958,533.257 571.612,529.072 C 573.459,526.143 575.479,524.188 577.513,524.384 C 582.006,524.9 583.921,537.777 584.748,545.984 C 585.116,549.87 582.708,553.314 579.116,554.339 C 578.463,554.526 577.815,554.606 577.167,554.685 C 574.796,554.798 572.664,554.382 570.859,553.874 C 566.608,552.722 564.111,548.313 565.375,543.96 Z" fill="#f9c710" stroke-width="0.685" marker-start="none" marker-end="none"/>
   <path d="M 571.607,529.18 C 573.454,526.25 575.475,524.295 577.508,524.49 C 582.002,525.009 583.915,537.885 584.741,546.09 C 585.111,549.978 582.703,553.421 579.111,554.448 L 579.111,554.448 C 579.111,554.448 582.8,531.386 571.607,529.18 L 571.607,529.18 Z" fill="#ffd95f" stroke-width="0.685" marker-start="none" marker-end="none"/>
   <path d="M 577.332,523.623 C 573.147,523.442 568.766,530.239 564.629,543.821 C 563.888,546.046 564.21,548.533 565.302,550.623 C 566.502,552.717 568.372,554.196 570.709,554.835 C 572.832,555.464 575.08,555.669 577.231,555.656 L 577.231,555.656 C 579.602,555.544 581.794,554.564 583.38,552.698 C 584.966,550.83 585.821,548.503 585.499,546.016 C 584.079,531.656 581.395,524.122 577.547,523.633 C 577.546,523.633 577.438,523.628 577.332,523.623 M 575.696,553.869 C 574.194,553.803 572.595,553.52 571.105,553.133 C 569.192,552.618 567.742,551.373 566.738,549.717 C 565.843,548.065 565.605,546.12 566.22,544.319 C 569.975,532.119 574.264,524.995 577.365,525.344 C 580.146,525.68 582.606,533.419 583.772,546.156 C 584.011,548.102 583.279,550.112 582.032,551.564 C 580.786,553.015 579.028,553.906 577.092,553.929 C 576.662,553.91 576.126,553.888 575.696,553.869 Z" fill="#ba5d08" stroke-width="0.685" marker-start="none" marker-end="none"/>
   <path d="M 602.354,417.741 C 604.211,419.541 604.528,422.136 604.528,422.136 C 604.528,422.136 601.849,421.912 600.101,420.116 C 598.243,418.315 597.926,415.721 597.926,415.721 C 597.926,415.721 600.491,416.047 602.354,417.741 Z" fill="#94f1c5" stroke-width="0.683" marker-start="none" marker-end="none"/>
   <path d="M 610.939,420.586 C 612.459,422.695 612.241,425.265 612.241,425.265 C 612.241,425.265 609.693,424.51 608.167,422.509 C 606.646,420.4 606.865,417.828 606.865,417.828 C 606.865,417.828 609.418,418.477 610.939,420.586 Z" fill="#94f1c5" stroke-width="0.683" marker-start="none" marker-end="none"/>
   <path d="M 526.11,398.413 C 524.394,398.338 522.774,398.483 521.361,398.852 C 511.046,401.199 502.277,412.536 499.04,427.662 C 494.46,448.964 493.51,465.909 492.63,483.717 C 492.498,486.721 492.364,489.833 492.121,492.94 C 492.104,493.369 492.406,493.813 492.942,493.836 C 493.372,493.854 493.815,493.551 493.837,493.015 C 493.972,489.903 494.216,486.796 494.345,483.791 C 495.226,465.982 496.172,449.146 500.748,427.951 C 503.839,413.679 512.278,402.542 521.833,400.377 C 530.085,398.477 538.558,403.065 546.803,413.743 C 547.112,414.08 547.586,414.034 547.923,413.726 C 548.259,413.418 548.377,412.84 548.069,412.503 C 539.507,401.703 532.119,398.673 526.11,398.413 Z" fill="#072032" stroke-width="0.683" marker-start="none" marker-end="none"/>
   <path d="M 514.476,406.401 C 512.782,408.262 512.666,410.945 512.666,410.945 C 512.666,410.945 515.264,410.52 516.958,408.659 C 518.651,406.797 518.768,404.115 518.768,404.115 C 518.768,404.115 516.169,404.539 514.476,406.401 Z" fill="#94f1c5" stroke-width="0.683" marker-start="none" marker-end="none"/>
   <path d="M 516.118,413.139 C 514.63,415.224 514.733,417.807 514.733,417.807 C 514.733,417.807 517.234,417.164 518.828,415.083 C 520.318,412.997 520.215,410.413 520.215,410.413 C 520.215,410.413 517.606,411.053 516.118,413.139 Z" fill="#94f1c5" stroke-width="0.683" marker-start="none" marker-end="none"/>
   <path d="M 508.093,417.197 C 507.026,419.515 507.562,422.012 507.562,422.012 C 507.562,422.012 509.974,420.935 511.042,418.615 C 512.111,416.296 511.574,413.8 511.574,413.8 C 511.574,413.8 509.266,414.99 508.093,417.197 Z" fill="#94f1c5" stroke-width="0.683" marker-start="none" marker-end="none"/>
   <path d="M 562.08,411.8 C 557.36,411.595 552.196,411.694 547.325,412.449 C 546.892,412.538 546.55,412.953 546.639,413.387 C 546.729,413.822 547.142,414.162 547.577,414.073 C 560.462,411.944 576.96,415.025 577.067,415.03 C 577.492,415.157 577.89,414.761 578.021,414.23 C 578.147,413.806 577.888,413.441 577.356,413.311 C 577.457,413.422 570.452,412.163 562.08,411.8 Z" fill="#072032" stroke-width="0.683" marker-start="none" marker-end="none"/>
   <path d="M 579.828,411.603 C 582.4,409.349 584.834,407.734 587.251,406.549 L 587.251,406.549 C 600.849,400.366 617.776,411.636 624.687,430.75 C 630.927,448.006 635.16,466.898 637.983,481.103 C 637.629,479.368 617.886,389.28 579.828,411.603 Z" fill="#20b26c" stroke-width="0.683" marker-start="none" marker-end="none"/>
   <path d="M 602.753,573.686 C 612.046,577.896 622.993,573.773 627.203,564.48 C 631.412,555.186 627.291,544.239 617.997,540.03 C 608.703,535.82 597.756,539.942 593.546,549.235 C 589.337,558.53 593.459,569.476 602.753,573.686 Z" fill="#ffffff" stroke-width="0.685" marker-start="none" marker-end="none"/>
   <path d="M 610.392,572.004 C 618.757,572.004 625.538,565.224 625.538,556.859 C 625.538,548.496 618.757,541.714 610.392,541.714 C 602.029,541.714 595.248,548.496 595.248,556.859 C 595.248,565.224 602.029,572.004 610.392,572.004 Z" fill="#aaaaaa" stroke-width="0.685" marker-start="none" marker-end="none"/>
   <path d="M 611.241,537.457 C 600.94,537.011 592.006,544.687 591.125,555.076 L 591.125,555.076 C 590.686,560.218 592.188,565.228 595.563,569.244 C 598.829,573.256 603.564,575.612 608.701,576.157 C 613.842,576.595 618.853,575.093 622.87,571.719 C 626.881,568.453 629.237,563.718 629.782,558.582 C 630.78,547.982 622.913,538.502 612.207,537.499 C 611.884,537.486 611.562,537.472 611.241,537.457 M 592.836,555.258 C 593.257,550.546 595.482,546.342 599.161,543.276 C 602.734,540.206 607.311,538.794 612.025,539.212 C 621.77,540.066 628.923,548.653 628.069,558.4 C 627.651,563.112 625.425,567.316 621.745,570.381 C 618.171,573.451 613.594,574.866 608.883,574.445 C 604.169,574.026 599.967,571.801 596.901,568.12 C 593.832,564.546 592.417,559.97 592.836,555.258 L 592.836,555.258 Z" fill="#23d580" stroke-width="0.683" marker-start="none" marker-end="none"/>
   <ellipse rx="9.035" ry="9.035" transform="translate(610.45 556.914) rotate(90)" fill="#000000"/>
   <path d="M 614.957,563.313 C 615.129,561.816 616.468,560.692 617.966,560.864 C 619.463,561.036 620.587,562.375 620.415,563.873 C 620.243,565.371 618.904,566.495 617.406,566.322 C 615.909,566.149 614.783,564.812 614.957,563.313 Z" fill="#ffffff" stroke-width="0.685" marker-start="none" marker-end="none"/>
   <path d="M 596.175,404.034 C 593.063,403.9 589.92,404.515 587.069,405.789 L 587.069,405.789 C 583.562,407.357 580.006,409.998 576.624,413.613 C 576.288,413.921 576.265,414.458 576.68,414.798 C 576.988,415.135 577.524,415.158 577.866,414.742 C 581.13,411.337 584.466,408.793 587.759,407.216 L 587.759,407.216 C 592.697,404.958 598.173,405.089 603.665,407.369 C 612.427,411.082 619.999,419.904 624.036,430.937 C 632.392,453.876 636.972,479.661 639.487,493.531 C 639.828,495.59 640.177,497.432 640.434,498.948 C 640.523,499.383 640.939,499.723 641.479,499.638 C 641.914,499.549 642.254,499.135 642.169,498.594 C 641.914,497.078 641.563,495.234 641.217,493.285 C 638.701,479.414 634.026,453.411 625.668,430.472 C 621.44,418.892 613.452,409.73 604.373,405.895 C 601.518,404.804 598.75,404.147 596.175,404.034 Z" fill="#072032" stroke-width="0.683" marker-start="none" marker-end="none"/>
   <path d="M 689.479,507.993 C 689.479,507.993 678.769,503.922 669.728,503.927 C 669.728,503.927 670.952,506.66 672.779,510.381 C 676.806,518.087 683.916,529.847 689.794,529.181 C 692.671,528.804 692.383,526.455 691.474,523.015 C 690.382,519.337 688.427,514.422 689.007,510.017 C 689.098,509.327 689.25,508.65 689.479,507.993 Z" fill="#21d37e" stroke-width="0.683" marker-start="none" marker-end="none"/>
   <path d="M 523.432,512.146 C 523.319,512.249 523.427,512.253 523.432,512.146 Z" fill="#92268f" stroke-width="0.685" marker-start="none" marker-end="none"/>
   <path d="M 568.263,472.486 C 568.216,471.088 568.066,469.575 567.809,468.058 C 565.961,458.626 558.411,449.268 542.746,448.587 C 535.878,448.289 511.628,457.127 505.407,489.001 C 504.153,495.612 503.613,503.114 504.201,511.848 L 523.427,512.251 C 523.437,512.036 524.025,510.881 525.284,509.107 L 525.284,509.107 L 525.284,509.107 C 529.752,502.743 541.218,488.727 553.26,483.768 C 561.839,479.304 568.352,477.866 568.263,472.486 Z" fill="#21d37e" stroke-width="0.683" marker-start="none" marker-end="none"/>
   <path d="M 554.869,478.893 C 552.565,479.975 550.012,479.327 550.012,479.327 C 550.012,479.327 551.188,477.013 553.493,475.931 C 555.797,474.849 558.349,475.496 558.349,475.496 C 558.349,475.496 557.168,477.918 554.869,478.893 Z" fill="#94f1c5" stroke-width="0.683" marker-start="none" marker-end="none"/>
   <path d="M 545.002,475.885 C 542.697,476.967 540.145,476.32 540.145,476.32 C 540.145,476.32 541.321,474.005 543.625,472.923 C 545.93,471.841 548.482,472.489 548.482,472.489 C 548.482,472.489 547.301,474.91 545.002,475.885 Z" fill="#94f1c5" stroke-width="0.683" marker-start="none" marker-end="none"/>
   <path d="M 541.307,484.217 C 539.198,485.738 536.627,485.519 536.627,485.519 C 536.627,485.519 537.383,482.971 539.384,481.445 C 541.493,479.926 544.063,480.144 544.063,480.144 C 544.063,480.144 543.415,482.696 541.307,484.217 Z" fill="#94f1c5" stroke-width="0.683" marker-start="none" marker-end="none"/>
   <path d="M 567.809,468.06 C 565.961,458.626 558.411,449.268 542.746,448.587 C 535.878,448.289 511.628,457.128 505.407,489.002 L 504.004,506.464 C 504.004,506.464 507.715,470.503 530.719,460.644 C 553.611,450.887 567.809,468.06 567.809,468.06 Z" fill="#1cb66c" stroke-width="0.683" marker-start="none" marker-end="none"/>
   <path d="M 568.263,472.486 C 568.216,471.088 568.066,469.575 567.809,468.058 C 569.117,475.103 561.558,475.849 546.252,484.216 C 531.168,492.377 525.418,508.469 525.287,509.001 C 529.756,502.636 541.222,488.621 553.264,483.661 C 561.839,479.304 568.352,477.866 568.263,472.486 Z" fill="#20b26c" stroke-width="0.683" marker-start="none" marker-end="none"/>
   <path d="M 691.474,523.015 C 687.713,530.404 675.03,513.377 672.779,510.38 C 676.806,518.087 683.916,529.847 689.794,529.18 C 692.671,528.803 692.365,526.35 691.474,523.015 Z" fill="#1cb66c" stroke-width="0.683" marker-start="none" marker-end="none"/>
   <path d="M 689.419,505.715 C 689.667,505.89 676.824,495.645 683.911,491.177 C 683.93,491.283 667.937,493.988 689.419,505.715 Z" fill="#1cb66c" stroke-width="0.683" marker-start="none" marker-end="none"/>
   <path d="M 686.768,490.042 C 686.768,490.042 672.373,480.928 682.043,478.205 C 682.043,478.205 663.086,480.758 686.768,490.042 Z" fill="#1cb66c" stroke-width="0.683" marker-start="none" marker-end="none"/>
   <path d="M 679.091,476.199 C 679.091,476.199 667.863,469.71 676.681,465.823 C 676.681,465.822 657.074,469.683 679.091,476.199 Z" fill="#1cb66c" stroke-width="0.683" marker-start="none" marker-end="none"/>
   <path d="M 676.202,464.923 C 672.813,465.497 669.144,466.987 668.09,469.127 C 667.51,470.204 667.813,471.352 668.75,472.391 C 670.98,474.629 676.866,476.575 680.982,477.731 C 678.14,478.321 674.93,479.299 674.157,481.172 C 673.822,481.773 673.79,482.868 674.64,484.031 C 676.571,486.428 681.115,488.818 685.092,490.434 C 682.584,490.422 680.149,490.834 678.616,492.074 C 677.664,492.888 677.207,494.055 677.317,495.344 C 677.757,502.459 691.136,507.494 691.243,507.477 C 691.702,507.616 692.195,507.315 692.23,506.874 C 692.369,506.415 692.087,506.027 691.627,505.885 C 690.144,505.483 679.307,500.672 679.048,495.269 C 679.028,494.51 679.238,493.821 679.819,493.396 C 682.199,491.359 689.44,492.312 691.932,492.872 C 692.391,493.012 692.779,492.73 692.919,492.268 C 693.059,491.81 692.776,491.422 692.316,491.282 C 692.192,491.193 679.222,487.287 675.998,483.039 C 675.45,482.37 675.608,482.017 675.695,481.893 C 676.397,480.249 681.885,479.211 685.541,478.92 C 685.964,478.848 686.246,478.583 686.281,478.142 C 686.314,477.7 686.031,477.312 685.59,477.278 C 682.075,476.456 672.48,473.83 669.985,471.313 C 669.453,470.749 669.488,470.307 669.664,470.06 C 670.542,468.168 676.311,466.211 679.861,466.592 C 680.302,466.626 680.797,466.325 680.831,465.882 C 680.864,465.441 680.564,464.948 680.121,464.913 C 678.973,464.563 677.579,464.69 676.202,464.923 Z" fill="#072032" stroke-width="0.683" marker-start="none" marker-end="none"/>
   <path d="M 542.886,447.841 L 542.779,447.836 C 538.379,447.646 528.026,450.851 519.023,460.136 C 510.921,468.493 501.531,484.212 503.445,511.923 C 503.427,512.352 503.842,512.694 504.378,512.717 C 504.807,512.735 505.148,512.319 505.171,511.783 C 503.335,484.719 512.39,469.308 520.266,461.265 C 529.264,452.087 539.271,449.405 542.813,449.558 L 542.919,449.562 C 559.659,450.289 567.339,461.589 567.507,472.562 C 567.564,476.22 563.832,477.992 558.132,480.54 C 556.597,481.226 554.842,482.009 552.972,483.004 C 537.758,489.224 522.755,510.397 522.568,512.216 C 522.555,512.538 522.755,512.87 522.961,513.093 C 523.274,513.322 523.6,513.229 523.931,513.028 C 524.262,512.827 524.384,512.509 524.29,512.183 C 525.704,509.342 539.427,490.372 553.549,484.534 C 555.415,483.648 557.062,482.86 558.709,482.07 C 564.742,479.321 569.132,477.255 569.121,472.524 C 568.883,460.687 560.698,448.614 542.886,447.841 Z" fill="#072032" stroke-width="0.683" marker-start="none" marker-end="none"/>
   <path d="M 522.387,547.39 C 522.108,547.39 521.833,547.528 521.669,547.781 C 521.413,548.176 521.525,548.706 521.922,548.963 C 533.314,556.347 544.875,554.673 550.536,553.121 C 546.157,556.909 541.571,558.42 541.517,558.438 C 541.067,558.582 540.819,559.065 540.964,559.514 C 541.11,559.963 541.592,560.211 542.04,560.067 C 542.327,559.974 549.141,557.74 554.392,551.689 C 554.656,551.384 554.671,550.938 554.43,550.615 C 554.187,550.293 553.753,550.184 553.388,550.351 C 553.235,550.423 537.889,557.273 522.853,547.529 C 522.708,547.434 522.547,547.39 522.387,547.39 Z" fill="#072032" stroke-width="0.683" marker-start="none" marker-end="none"/>
   <path d="M 602.867,410.883 C 604.839,412.474 605.479,415.081 605.479,415.081 C 605.479,415.081 602.792,415.072 600.818,413.481 C 598.845,411.891 598.205,409.282 598.205,409.282 C 598.205,409.282 600.892,409.291 602.867,410.883 Z" fill="#94f1c5" stroke-width="0.683" marker-start="none" marker-end="none"/>
   <path d="M 669.727,503.071 C 669.61,503.071 669.492,503.094 669.378,503.145 C 668.947,503.339 668.754,503.844 668.947,504.276 C 668.96,504.302 670.199,507.066 672.012,510.758 C 678.987,524.11 685.004,530.579 689.889,530.031 C 691.063,529.876 691.907,529.419 692.41,528.669 C 693.365,527.246 692.904,525.078 692.301,522.796 C 692.113,522.16 691.908,521.518 691.695,520.848 C 691.024,518.74 690.264,516.352 689.93,514 C 689.722,512.519 689.693,511.356 689.842,510.228 C 689.904,509.759 689.574,509.331 689.105,509.269 C 688.634,509.205 688.208,509.538 688.146,510.005 C 687.977,511.293 688.005,512.599 688.238,514.239 C 688.591,516.733 689.374,519.194 690.064,521.366 C 690.275,522.026 690.475,522.658 690.653,523.257 C 691.139,525.094 691.521,526.925 690.99,527.714 C 690.909,527.835 690.662,528.203 689.681,528.331 C 685.739,528.785 679.863,522.089 673.538,509.984 C 671.749,506.34 670.52,503.602 670.509,503.576 C 670.367,503.258 670.055,503.071 669.727,503.071 Z" fill="#072032" stroke-width="0.683" marker-start="none" marker-end="none"/>
  </g>
 </g>
</svg>
