<svg xmlns:xlink="http://www.w3.org/1999/xlink" xmlns="http://www.w3.org/2000/svg" fill="none" fill-rule="evenodd" stroke="black" stroke-width="0.501" stroke-linejoin="bevel" stroke-miterlimit="10" font-family="Times New Roman" font-size="16" style="font-variant-ligatures:none" version="1.1" overflow="visible" viewBox="961.02 -617.38 260.1 239.78">
 <defs>
	</defs>
 <g id="Layer 1" transform="scale(1 -1)">
  <path d="M 1093.58,389.521 C 1131.55,389.521 1162.33,387.026 1162.33,383.947 C 1162.33,380.868 1131.55,378.374 1093.58,378.374 C 1055.61,378.374 1024.83,380.868 1024.83,383.947 C 1024.83,387.026 1055.61,389.521 1093.58,389.521 Z" stroke="none" fill="#c7d1ea" stroke-width="0.609" stroke-linejoin="miter" marker-start="none" marker-end="none"/>
  <g id="Group" stroke-linejoin="miter" stroke="none">
   <path d="M 1023.66,493.191 C 1023,493.048 1022.34,492.909 1021.68,492.769 C 985.295,481.184 941.379,535.343 972.245,526.608 C 968.99,530.887 961.265,541.938 964.693,546.429 C 967.953,550.57 974.044,546.099 976.346,543.863 C 975.929,544.363 968.453,562.366 971.637,566.219 C 976.99,574.805 989.562,550.015 995.275,542.603 C 1005.35,528.597 1028.26,516.554 1027.43,517.55 C 1026.58,512.468 1024.37,498.307 1023.66,493.191 Z" fill="#23d480" stroke-width="0.631" marker-start="none" marker-end="none"/>
   <path d="M 989.211,551.662 C 982.226,563.773 975.125,571.235 971.637,566.219 C 970.504,564.564 970.836,561.045 971.661,557.325 C 973.285,558.774 975.402,560.015 977.686,559.5 C 981.281,558.641 990.699,548.08 995.275,542.603 C 993.123,545.422 990.956,548.482 989.211,551.662 Z" fill="#43c889" stroke-width="0.631" marker-start="none" marker-end="none"/>
   <path d="M 973.912,545.901 C 971.348,547.736 967.252,549.661 964.637,546.52 C 961.457,542.669 967.55,533.13 970.564,528.84 C 962.25,547.219 973.912,545.901 973.912,545.901 Z" fill="#43c889" stroke-width="0.631" marker-start="none" marker-end="none"/>
   <path d="M 1019.3,496.195 C 1019.3,496.195 1017.45,498.08 1014.94,498.345 C 1012.44,498.604 1010.19,497.161 1010.19,497.161 C 1010.19,497.161 1012.04,495.277 1014.55,495.014 C 1017.05,494.751 1019.3,496.195 1019.3,496.195 Z" fill="#94f1c5" stroke-width="0.612" marker-start="none" marker-end="none"/>
   <path d="M 1012.37,502.522 C 1012.37,502.522 1010.52,504.405 1008.01,504.669 C 1005.51,504.929 1003.26,503.487 1003.26,503.487 C 1003.26,503.487 1005.11,501.605 1007.62,501.342 C 1010.12,501.078 1012.37,502.522 1012.37,502.522 Z" fill="#94f1c5" stroke-width="0.612" marker-start="none" marker-end="none"/>
   <path d="M 962.031,522.716 C 961.211,528.544 965.709,528.464 969.014,527.684 C 969.308,527.605 969.746,527.493 970.036,527.416 L 970.036,527.416 C 965.073,521.533 968.885,516.097 984.693,504.344 C 1000.45,492.68 1021.24,492.883 1021.57,492.955 C 987.281,485.814 963.283,514.047 962.031,522.716 Z" fill="#20b26c" stroke-width="0.631" marker-start="none" marker-end="none"/>
   <path d="M 989.818,551.897 C 1003.15,528.544 1027.53,518.228 1027.72,518.095 C 1028.07,517.924 1028.25,517.414 1028.13,516.975 C 1027.97,516.63 1027.45,516.451 1027.02,516.564 C 1026.72,516.64 1001.81,527.256 988.292,551.124 C 982.765,560.749 977.536,566.709 974.371,566.832 C 973.601,566.876 972.868,566.443 972.251,565.589 C 969.803,562.173 974.767,548.877 976.95,544.094 C 977.167,543.728 977.053,543.286 976.686,543.07 C 976.313,542.857 975.933,542.879 975.624,543.194 C 975.624,543.194 971.328,547.353 967.846,547.166 C 966.802,547.046 965.922,546.653 965.217,545.744 C 962.255,542.152 969.65,531.026 972.743,527.022 C 972.903,526.746 972.934,526.269 972.714,526.017 C 972.493,525.765 972.07,525.639 971.721,525.806 C 970.102,526.461 965.594,528.024 963.641,526.507 C 962.777,525.876 962.432,524.562 962.744,522.764 C 963.292,518.88 969.423,509.486 980.501,502.003 C 989.664,495.877 1004.44,489.458 1023.27,494.071 C 1023.69,494.194 1024.14,493.842 1024.27,493.42 C 1024.39,492.999 1024.04,492.545 1023.62,492.42 C 1004.23,487.72 989.006,494.254 979.588,500.605 C 968.969,507.735 961.906,517.445 961.13,522.559 C 960.77,525.07 961.322,526.876 962.684,527.924 C 964.637,529.444 967.634,528.976 969.825,528.405 C 966.649,532.975 960.393,542.792 963.93,547.092 C 965.039,548.364 966.235,549.068 967.813,549.126 C 970.007,549.177 972.429,548.002 974.137,546.778 C 972.049,552.233 968.31,563.029 970.926,566.791 C 971.409,567.445 971.883,567.903 972.46,568.185 C 978.239,571.014 986.345,558.024 989.818,551.897 Z" fill="#072032" stroke-width="0.631" marker-start="none" marker-end="none"/>
   <path d="M 1005.12,497.155 C 1005.12,497.155 1003.64,499.256 1001.16,499.902 C 998.733,500.456 996.36,499.434 996.36,499.434 C 996.36,499.434 997.841,497.336 1000.33,496.687 C 1002.72,495.988 1005.12,497.155 1005.12,497.155 Z" fill="#94f1c5" stroke-width="0.612" marker-start="none" marker-end="none"/>
   <path d="M 1216.37,534.13 C 1218.87,529.065 1209.02,519.818 1205.04,516.175 C 1236.63,519.239 1184.46,473.198 1148,493.813 C 1148.17,498.839 1148.89,513.095 1149.1,518.355 C 1153.53,518.359 1178.59,529.033 1185.61,536.499 C 1192.79,542.577 1210.03,564.372 1213.51,554.928 C 1215.95,550.507 1204.89,534.399 1204.46,533.95 C 1207.12,535.567 1213.98,538.785 1216.37,534.13 Z" fill="#23d480" stroke-width="0.631" marker-start="none" marker-end="none"/>
   <path d="M 1200.25,497.033 C 1187.72,489.484 1168.4,484.048 1147.93,493.682 L 1148.21,501.507 L 1148.92,518.196 C 1148.92,518.196 1156.91,519.732 1167.17,524.666 C 1167.28,524.695 1171.74,502.459 1200.25,497.033 Z" fill="#20b26c" stroke-width="0.631" marker-start="none" marker-end="none"/>
   <path d="M 1185.33,489.71 C 1175.25,486.933 1161.96,486.149 1147.59,492.922 C 1147.32,493.071 1147.13,493.349 1147.15,493.689 L 1148.14,518.204 C 1148.16,518.539 1148.49,518.962 1148.83,518.946 C 1149.03,519.002 1166.01,522.461 1181.78,534.333 C 1182.87,535.189 1183.86,536.016 1184.95,536.872 C 1187.74,539.191 1190.35,541.792 1192.72,544.435 C 1197.35,549.698 1205.79,558.444 1211.02,557.562 C 1212.06,557.401 1213.34,556.76 1214.19,554.891 C 1215.06,552.92 1214.46,549.877 1212.37,545.424 C 1210.69,541.865 1208.58,538.292 1206.93,535.845 C 1211.77,537.954 1215.39,537.29 1217.04,534.094 C 1219.56,529.363 1212.14,521.342 1207.49,516.958 C 1207.69,517.015 1207.92,516.967 1208.13,517.027 C 1211.31,517.127 1213.51,516.403 1214.58,514.928 C 1215.49,513.631 1215.63,511.9 1214.8,509.677 C 1213.06,504.77 1204.09,496.762 1192.37,491.871 C 1190.32,491.305 1187.9,490.42 1185.33,489.71 M 1148.87,494.273 C 1166.23,486.33 1181.71,489.598 1191.86,493.725 C 1204.29,498.812 1212.05,506.817 1213.36,510.5 C 1213.92,512.093 1213.91,513.308 1213.35,514.148 C 1212.63,515.166 1210.83,515.666 1208.29,515.632 C 1206.63,515.619 1205.17,515.324 1205.17,515.324 C 1204.76,515.212 1204.36,515.436 1204.28,515.745 C 1204.06,516.128 1204.18,516.492 1204.43,516.783 C 1204.43,516.783 1205.25,517.449 1206.38,518.539 C 1213.6,525.288 1217.01,530.987 1215.6,533.696 C 1214,536.689 1210.37,535.797 1207.5,534.567 C 1206.01,533.934 1205,533.212 1204.89,533.181 C 1204.51,532.965 1204.07,532.955 1203.86,533.338 C 1203.56,533.591 1203.53,534.13 1203.78,534.424 C 1204.25,535.108 1208.31,540.875 1210.97,546.48 C 1213.18,551.293 1213.23,553.525 1212.71,554.596 C 1212.33,555.595 1211.64,556.075 1210.81,556.287 C 1207.69,556.755 1201.36,552.022 1194.03,543.689 C 1191.68,540.941 1188.98,538.313 1186.11,535.864 C 1185.02,535.007 1184.03,534.18 1182.93,533.327 C 1168.54,522.5 1153.26,518.507 1149.94,517.701 L 1148.87,494.273 Z" fill="#072032" stroke-width="0.631" marker-start="none" marker-end="none"/>
   <g id="Group_1" stroke-width="0.068">
    <path d="M 1209.47,612.534 C 1207.44,612.619 1205.31,612.656 1203.29,612.316 C 1201.39,611.997 1199.47,611.228 1198.46,609.481 C 1197.96,608.619 1197.77,607.628 1197.66,606.653 C 1197.55,605.526 1197.45,604.399 1197.35,603.276 C 1197.14,600.902 1196.92,598.528 1196.7,596.15 C 1195.84,586.699 1194.98,577.243 1194.12,567.783 C 1193.9,565.487 1193.7,563.191 1193.49,560.89 C 1193.44,560.372 1193.85,560.072 1194.25,560.05 C 1194.59,560.032 1194.93,560.218 1194.98,560.665 C 1195.63,567.847 1196.29,575.028 1196.94,582.21 C 1198.75,581.938 1200.56,581.7 1202.38,581.485 C 1202.36,581.436 1202.35,581.387 1202.34,581.327 C 1202.11,579.143 1201.87,576.956 1201.64,574.772 C 1201.6,574.37 1201.86,573.981 1202.27,573.92 C 1202.28,573.92 1202.28,573.92 1202.29,573.919 C 1202.67,573.868 1203.09,574.15 1203.13,574.551 C 1203.36,576.737 1203.59,578.92 1203.83,581.106 C 1203.84,581.181 1203.84,581.251 1203.82,581.323 C 1205.48,581.138 1207.15,580.978 1208.81,580.851 C 1208.65,576.895 1208.4,572.949 1208.07,569.005 C 1208.03,568.493 1208.41,568.192 1208.81,568.158 C 1209.16,568.134 1209.51,568.321 1209.55,568.778 C 1209.9,572.745 1210.15,576.719 1210.3,580.697 C 1210.31,580.712 1210.3,580.723 1210.3,580.737 C 1212.13,580.61 1213.95,580.502 1215.78,580.429 C 1215.83,580.429 1215.89,580.429 1215.94,580.438 C 1215.61,576.669 1215.28,572.903 1214.96,569.137 C 1214.15,559.857 1213.35,550.577 1212.57,541.3 C 1211.77,532.021 1210.98,522.74 1210.21,513.459 C 1210.06,511.667 1209.91,509.876 1209.76,508.085 C 1209.22,508.726 1208.51,509.186 1207.59,509.309 C 1206.43,509.465 1205.46,509.051 1204.67,508.357 C 1205.22,514.079 1205.74,519.808 1206.19,525.538 C 1206.7,531.801 1207.14,538.072 1207.52,544.339 C 1207.74,547.859 1207.94,551.379 1208.11,554.899 C 1208.13,555.213 1208,555.511 1207.74,555.665 C 1207.66,555.708 1207.58,555.739 1207.48,555.753 C 1207.11,555.808 1206.64,555.527 1206.63,555.123 C 1206.31,548.874 1205.93,542.63 1205.5,536.388 C 1205.07,530.117 1204.58,523.855 1204.02,517.594 C 1203.75,514.492 1203.45,511.402 1203.16,508.304 C 1202.49,509.271 1201.55,509.993 1200.24,510.088 C 1199.29,510.157 1198.41,509.685 1197.7,509.078 C 1198.38,514.32 1198.89,519.584 1199.23,524.858 C 1199.34,526.507 1199.42,528.155 1199.5,529.806 C 1199.51,530.213 1199.3,530.6 1198.86,530.663 C 1198.77,530.678 1198.68,530.67 1198.58,530.647 C 1198.29,530.573 1198.02,530.338 1198.01,530.033 C 1197.75,524.281 1197.3,518.539 1196.65,512.816 C 1196.5,511.445 1196.32,510.079 1196.14,508.714 C 1196.1,508.76 1196.06,508.811 1196.01,508.862 C 1195.35,509.522 1194.46,509.768 1193.55,509.748 C 1192.56,509.718 1191.64,509.397 1190.92,508.835 C 1190.92,510.409 1191,511.989 1191.09,513.564 C 1191.47,520.045 1191.94,526.519 1192.47,532.987 C 1193.01,539.463 1193.62,545.924 1194.3,552.386 C 1194.38,553.196 1194.47,554.014 1194.56,554.825 C 1194.61,555.315 1194.25,555.615 1193.87,555.663 C 1193.51,555.708 1193.12,555.527 1193.06,555.05 C 1192.36,548.538 1191.73,542.023 1191.18,535.495 C 1190.62,528.997 1190.14,522.496 1189.73,515.984 C 1189.54,512.843 1189.28,509.671 1189.48,506.519 C 1189.68,503.414 1190.41,500.395 1191.15,497.385 C 1192.43,492.228 1193.65,487.053 1194.84,481.875 C 1195.85,477.416 1196.86,472.955 1197.77,468.476 C 1197.85,468.076 1197.93,467.682 1198.01,467.287 C 1198.08,466.886 1198.4,466.572 1198.84,466.616 C 1198.98,466.63 1199.13,466.699 1199.24,466.8 C 1199.5,466.861 1199.71,467.052 1199.74,467.398 C 1199.76,467.608 1199.83,467.824 1199.89,468.029 C 1199.94,468.21 1199.99,468.395 1200.04,468.577 C 1200.06,468.635 1200.11,468.813 1200.12,468.859 C 1200.16,468.999 1200.21,469.141 1200.25,469.279 C 1200.68,470.793 1201.14,472.313 1201.6,473.824 C 1202.94,478.204 1204.28,482.577 1205.62,486.953 C 1206.92,491.171 1208.22,495.39 1209.5,499.615 C 1209.9,500.958 1210.3,502.303 1210.68,503.655 C 1210.78,503.966 1210.84,504.278 1210.9,504.588 C 1210.97,504.711 1211.02,504.865 1210.98,505.051 C 1210.98,505.06 1210.98,505.061 1210.98,505.07 C 1211.15,506.19 1211.2,507.325 1211.3,508.48 C 1212.09,517.988 1212.9,527.495 1213.7,537 C 1214.51,546.432 1215.32,555.86 1216.13,565.288 C 1216.95,574.794 1217.78,584.3 1218.6,593.804 C 1218.81,596.141 1219.01,598.48 1219.22,600.814 C 1219.4,602.852 1219.75,605.014 1219.07,606.997 C 1217.73,610.97 1213.25,612.374 1209.47,612.534 Z" fill="#2c1028" marker-start="none" marker-end="none"/>
    <path d="M 1207.37,507.821 C 1205.8,508.03 1204.77,506.383 1204.23,505.153 C 1203.89,504.421 1202.93,504.672 1202.78,505.37 C 1202.66,505.942 1202.45,506.687 1202.08,507.266 C 1201.64,507.941 1200.89,508.575 1200.07,508.594 C 1199.46,508.612 1198.8,508.092 1198.36,507.641 C 1197.84,507.123 1197.4,506.532 1197.14,505.857 C 1196.86,505.121 1195.81,505.37 1195.7,506.075 C 1195.52,507.251 1194.91,508.314 1193.59,508.245 C 1192.43,508.181 1191.29,507.617 1191.03,506.394 C 1191.02,506.379 1191.02,506.368 1191.01,506.348 C 1191.07,505.627 1191.13,504.899 1191.24,504.172 C 1191.65,501.331 1192.41,498.555 1193.09,495.775 C 1194.36,490.558 1195.59,485.331 1196.77,480.091 C 1196.78,480.038 1196.8,479.985 1196.81,479.932 C 1198.48,479.512 1200.12,479.421 1201.76,479.454 C 1202.85,483.024 1203.95,486.593 1205.05,490.159 C 1206.23,494.018 1207.41,497.871 1208.57,501.737 C 1208.75,502.356 1208.94,502.977 1209.12,503.597 C 1209.14,503.663 1209.19,503.848 1209.2,503.899 C 1209.22,503.948 1209.26,504.102 1209.28,504.147 C 1209.32,504.312 1209.37,504.481 1209.4,504.647 C 1209.43,504.759 1209.46,504.867 1209.47,504.983 C 1209.29,506.19 1208.74,507.639 1207.37,507.821 Z" fill="#fdc697" marker-start="none" marker-end="none"/>
    <path d="M 1202.34,581.327 C 1202.35,581.387 1202.36,581.436 1202.38,581.485 C 1200.56,581.7 1198.75,581.938 1196.94,582.21 C 1196.29,575.028 1195.63,567.847 1194.98,560.665 C 1194.93,560.218 1194.59,560.032 1194.25,560.05 L 1194.15,558.968 C 1194.24,558.982 1194.32,558.989 1194.4,558.977 C 1194.47,558.958 1194.53,558.941 1194.59,558.922 C 1194.72,558.867 1194.82,558.79 1194.9,558.675 C 1194.93,558.62 1194.96,558.562 1194.99,558.5 C 1195.04,558.409 1195.05,558.314 1195.04,558.215 C 1195.05,558.117 1195.03,558.021 1194.98,557.934 C 1194.95,557.841 1194.89,557.762 1194.81,557.697 C 1194.75,557.616 1194.66,557.566 1194.56,557.532 C 1194.51,557.501 1194.46,557.473 1194.41,557.447 C 1194.28,557.399 1194.15,557.389 1194.02,557.405 C 1194.02,557.405 1194.02,557.405 1194.02,557.405 L 1193.87,555.663 C 1194.25,555.615 1194.61,555.315 1194.56,554.825 C 1194.47,554.014 1194.38,553.196 1194.3,552.386 C 1193.62,545.924 1193.01,539.463 1192.47,532.987 C 1191.94,526.519 1191.47,520.045 1191.09,513.564 C 1191,511.989 1190.92,510.409 1190.92,508.835 C 1191.64,509.397 1192.56,509.718 1193.55,509.748 C 1194.46,509.768 1195.35,509.522 1196.01,508.862 C 1196.06,508.811 1196.1,508.76 1196.14,508.714 C 1196.32,510.079 1196.5,511.445 1196.65,512.816 C 1197.3,518.539 1197.75,524.281 1198.01,530.033 C 1198.02,530.338 1198.29,530.573 1198.58,530.647 L 1198.63,531.222 C 1198.2,531.461 1197.98,532.118 1198.5,532.491 C 1198.58,532.556 1198.66,532.598 1198.75,532.615 L 1202.29,573.919 C 1202.28,573.92 1202.28,573.92 1202.27,573.92 C 1201.86,573.981 1201.6,574.37 1201.64,574.772 C 1201.87,576.956 1202.11,579.143 1202.34,581.327 Z" fill="#fbad54" marker-start="none" marker-end="none"/>
    <path d="M 1208.57,556.583 C 1208.3,556.387 1208.03,556.399 1207.81,556.523 L 1207.74,555.665 C 1208,555.511 1208.13,555.213 1208.11,554.899 C 1207.94,551.379 1207.74,547.859 1207.52,544.339 C 1207.14,538.072 1206.7,531.801 1206.19,525.538 C 1205.74,519.808 1205.22,514.079 1204.67,508.357 C 1205.46,509.051 1206.43,509.465 1207.59,509.309 C 1208.51,509.186 1209.22,508.726 1209.76,508.085 C 1209.91,509.876 1210.06,511.667 1210.21,513.459 C 1210.98,522.74 1211.77,532.021 1212.57,541.3 C 1213.35,550.577 1214.15,559.857 1214.96,569.137 C 1215.28,572.903 1215.61,576.669 1215.94,580.438 C 1215.89,580.429 1215.83,580.429 1215.78,580.429 C 1213.95,580.502 1212.13,580.61 1210.3,580.737 C 1210.3,580.723 1210.31,580.712 1210.3,580.697 C 1210.15,576.719 1209.9,572.745 1209.55,568.778 C 1209.51,568.321 1209.16,568.134 1208.81,568.158 L 1207.93,557.917 C 1208.63,558.117 1209.27,557.096 1208.57,556.583 Z" fill="#fbad54" marker-start="none" marker-end="none"/>
    <path d="M 1208.07,569.005 C 1208.4,572.949 1208.65,576.895 1208.81,580.851 C 1207.15,580.978 1205.48,581.138 1203.82,581.323 C 1203.84,581.251 1203.84,581.181 1203.83,581.106 C 1203.59,578.92 1203.36,576.737 1203.13,574.551 C 1203.09,574.15 1202.67,573.868 1202.29,573.919 L 1198.75,532.615 C 1199.45,532.817 1200.09,531.798 1199.39,531.282 C 1199.12,531.085 1198.85,531.104 1198.63,531.222 L 1198.58,530.647 C 1198.68,530.67 1198.77,530.678 1198.86,530.663 C 1199.3,530.6 1199.51,530.213 1199.5,529.806 C 1199.42,528.155 1199.34,526.507 1199.23,524.858 C 1198.89,519.584 1198.38,514.32 1197.7,509.078 C 1198.41,509.685 1199.29,510.157 1200.24,510.088 C 1201.55,509.993 1202.49,509.271 1203.16,508.304 C 1203.45,511.402 1203.75,514.492 1204.02,517.594 C 1204.58,523.855 1205.07,530.117 1205.5,536.388 C 1205.93,542.63 1206.31,548.874 1206.63,555.123 C 1206.64,555.527 1207.11,555.808 1207.48,555.753 C 1207.58,555.739 1207.66,555.708 1207.74,555.665 L 1207.81,556.523 C 1207.38,556.766 1207.16,557.415 1207.68,557.793 C 1207.76,557.853 1207.85,557.889 1207.93,557.917 L 1208.81,568.158 C 1208.41,568.192 1208.03,568.493 1208.07,569.005 Z" fill="#fec55a" marker-start="none" marker-end="none"/>
    <path d="M 1211.28,596.294 C 1211.12,596.301 1210.97,596.315 1210.82,596.334 C 1208.15,596.541 1205.49,596.754 1202.83,596.963 C 1201.33,597.084 1199.83,597.205 1198.32,597.32 C 1198.28,596.849 1198.23,596.365 1198.19,595.884 L 1211.15,594.775 L 1211.28,596.294 Z" fill="#bbbdc0" marker-start="none" marker-end="none"/>
    <path d="M 1210.39,586.022 L 1197.39,587.135 C 1197.29,585.989 1197.18,584.85 1197.07,583.71 C 1201.39,583.061 1205.73,582.582 1210.07,582.261 L 1210.39,586.022 Z" fill="#bbbdc0" marker-start="none" marker-end="none"/>
    <path d="M 1216.04,608.835 C 1215.08,609.678 1213.94,610.212 1212.73,610.548 C 1213.11,610.101 1213.42,609.604 1213.69,609.085 C 1214.77,607.047 1214.9,604.75 1214.65,602.498 C 1214.54,601.532 1213.05,601.758 1213.16,602.721 C 1213.37,604.656 1213.27,606.585 1212.39,608.353 C 1212.06,609.015 1211.62,609.643 1211.05,610.108 C 1210.34,610.696 1209.49,610.97 1208.58,611.069 C 1208.54,611.072 1208.5,611.079 1208.47,611.087 C 1207.21,611.125 1205.96,611.077 1204.73,610.979 C 1202.91,610.826 1200.64,610.422 1199.71,608.643 C 1199.26,607.796 1199.19,606.813 1199.1,605.872 C 1199,604.745 1198.89,603.616 1198.79,602.487 C 1198.68,601.262 1198.57,600.04 1198.46,598.82 C 1198.94,598.783 1199.42,598.743 1199.9,598.705 C 1202.57,598.49 1205.23,598.28 1207.89,598.064 C 1209.56,597.935 1211.22,597.806 1212.87,597.673 C 1213.26,597.642 1213.45,597.386 1213.49,597.097 L 1214.43,597.013 C 1214.47,597.063 1214.52,597.109 1214.58,597.155 C 1215,597.463 1215.45,597.259 1215.65,596.91 L 1217.35,596.763 C 1217.37,596.868 1217.38,596.973 1217.39,597.086 C 1217.58,599.293 1217.84,601.519 1217.95,603.74 C 1218.05,605.707 1217.57,607.506 1216.04,608.835 Z" fill="#f15e52" marker-start="none" marker-end="none"/>
    <path d="M 1208.61,610.441 C 1204.32,611.247 1199.92,609.649 1199.69,606.612 C 1199.47,603.641 1199.57,601.061 1199.57,601.061 L 1212,599.931 C 1212,599.931 1212.01,602.785 1212.17,604.617 C 1212.34,606.622 1211.49,609.891 1208.61,610.441 Z" fill="#f5846a" marker-start="none" marker-end="none"/>
    <path d="M 1210.65,588.925 L 1197.65,590.037 C 1197.61,589.515 1197.56,588.995 1197.52,588.47 C 1197.47,588.026 1197.43,587.579 1197.39,587.135 L 1210.39,586.022 L 1210.65,588.925 Z" fill="#ededee" marker-start="none" marker-end="none"/>
    <path d="M 1211.15,594.775 L 1211.15,594.775 L 1211.15,594.775 L 1198.19,595.884 C 1198.1,594.913 1198.01,593.947 1197.93,592.984 L 1210.9,591.869 L 1211.15,594.775 Z" fill="#ededee" marker-start="none" marker-end="none"/>
    <path d="M 1210.65,588.925 L 1210.39,586.022 L 1210.07,582.261 C 1212.05,582.112 1214.03,581.997 1216,581.921 C 1216.03,581.917 1216.05,581.906 1216.07,581.903 C 1216.17,583.107 1216.27,584.305 1216.38,585.508 L 1210.39,586.022 L 1210.65,588.925 L 1216.63,588.412 C 1216.72,589.392 1216.8,590.374 1216.89,591.358 L 1210.9,591.869 L 1210.65,588.925 Z" fill="#9ea0a3" marker-start="none" marker-end="none"/>
    <path d="M 1215.47,595.947 C 1214.75,595.411 1213.94,596.406 1214.43,597.013 L 1213.49,597.097 C 1213.54,596.658 1213.23,596.137 1212.65,596.184 C 1212.19,596.22 1211.73,596.256 1211.28,596.294 L 1211.15,594.775 L 1211.15,594.775 L 1217.14,594.262 C 1217.21,595.094 1217.28,595.932 1217.35,596.763 L 1215.65,596.91 C 1215.83,596.61 1215.83,596.213 1215.47,595.947 Z" fill="#9ea0a3" marker-start="none" marker-end="none"/>
    <path d="M 1210.39,586.022 L 1216.38,585.508 C 1216.46,586.474 1216.55,587.443 1216.63,588.412 L 1210.65,588.925 L 1210.39,586.022 Z" fill="#bbbdc0" marker-start="none" marker-end="none"/>
    <path d="M 1211.15,594.775 L 1210.9,591.869 L 1197.93,592.984 C 1197.83,591.999 1197.74,591.02 1197.65,590.037 L 1210.65,588.925 L 1210.9,591.869 L 1216.89,591.358 C 1216.97,592.324 1217.05,593.295 1217.14,594.262 L 1211.15,594.775 L 1211.15,594.775 Z" fill="#bbbdc0" marker-start="none" marker-end="none"/>
    <path d="M 1194.41,557.447 C 1194.46,557.473 1194.51,557.501 1194.56,557.532 C 1194.66,557.566 1194.75,557.616 1194.81,557.697 C 1194.89,557.762 1194.95,557.841 1194.98,557.934 C 1195.03,558.021 1195.05,558.117 1195.04,558.215 C 1195.05,558.314 1195.04,558.409 1194.99,558.5 C 1194.96,558.562 1194.93,558.62 1194.9,558.675 C 1194.82,558.79 1194.72,558.867 1194.59,558.922 C 1194.53,558.941 1194.47,558.958 1194.4,558.977 C 1194.32,558.989 1194.24,558.982 1194.15,558.968 C 1194.11,558.958 1194.07,558.952 1194.02,558.936 C 1193.97,558.907 1193.92,558.881 1193.87,558.853 C 1193.77,558.819 1193.68,558.764 1193.62,558.685 C 1193.54,558.622 1193.48,558.54 1193.44,558.447 C 1193.4,558.357 1193.38,558.266 1193.38,558.166 C 1193.38,558.068 1193.39,557.973 1193.43,557.882 C 1193.46,557.82 1193.5,557.762 1193.53,557.702 C 1193.61,557.591 1193.71,557.511 1193.84,557.458 C 1193.89,557.439 1193.96,557.425 1194.02,557.405 C 1194.02,557.405 1194.02,557.405 1194.02,557.405 C 1194.15,557.389 1194.28,557.399 1194.41,557.447 Z" fill="#2c1028" marker-start="none" marker-end="none"/>
    <path d="M 1195.54,503.689 C 1195.03,504.309 1194.59,506.772 1193.53,506.79 C 1192.57,506.807 1191.77,505.583 1192.13,503.799 C 1192.5,502.016 1194.81,490.539 1196.69,482.437 C 1196.87,481.655 1197.56,480.234 1198.45,480.844 C 1200.01,481.916 1200.51,496.607 1201.13,500.599 C 1201.33,501.943 1201.59,505.309 1199.78,505.73 C 1197.63,506.227 1197.57,501.174 1195.54,503.689 Z" fill="#fee2cb" marker-start="none" marker-end="none"/>
    <path d="M 1194.34,522.429 C 1194.26,521.467 1195.74,521.238 1195.82,522.207 C 1196.36,528.731 1196.9,535.259 1197.44,541.785 C 1197.98,548.314 1198.52,554.844 1199.06,561.369 C 1199.36,565.052 1199.66,568.732 1199.97,572.414 C 1200.05,573.376 1198.57,573.601 1198.49,572.64 C 1197.95,566.109 1197.41,559.581 1196.87,553.057 C 1196.33,546.528 1195.78,540.001 1195.25,533.473 C 1194.94,529.793 1194.64,526.11 1194.34,522.429 Z" fill="#fec55a" marker-start="none" marker-end="none"/>
    <path d="M 1199.5,574.319 C 1199.63,574.298 1199.76,574.314 1199.88,574.36 C 1199.91,574.379 1199.95,574.403 1199.98,574.414 C 1200.08,574.453 1200.17,574.504 1200.23,574.585 C 1200.31,574.647 1200.37,574.723 1200.4,574.819 C 1200.45,574.909 1200.46,575.004 1200.46,575.102 C 1200.46,575.197 1200.46,575.293 1200.41,575.387 C 1200.38,575.445 1200.35,575.5 1200.32,575.562 C 1200.24,575.668 1200.13,575.753 1200.01,575.806 C 1199.95,575.822 1199.89,575.838 1199.82,575.86 C 1199.69,575.879 1199.57,575.862 1199.45,575.819 C 1199.41,575.795 1199.37,575.781 1199.34,575.762 C 1199.24,575.725 1199.16,575.676 1199.09,575.596 C 1199.01,575.532 1198.96,575.454 1198.92,575.36 C 1198.87,575.266 1198.86,575.176 1198.87,575.078 C 1198.85,574.979 1198.87,574.883 1198.91,574.791 C 1198.94,574.734 1198.98,574.674 1199.01,574.618 C 1199.09,574.508 1199.19,574.427 1199.31,574.37 C 1199.37,574.355 1199.44,574.338 1199.5,574.319 Z" fill="#fec55a" marker-start="none" marker-end="none"/>
    <path d="M 1199.39,531.282 C 1200.09,531.798 1199.45,532.817 1198.75,532.615 C 1198.66,532.598 1198.58,532.556 1198.5,532.491 C 1197.98,532.118 1198.2,531.461 1198.63,531.222 C 1198.85,531.104 1199.12,531.085 1199.39,531.282 Z" fill="#2c1028" marker-start="none" marker-end="none"/>
    <path d="M 1208.57,556.583 C 1209.27,557.096 1208.63,558.117 1207.93,557.917 C 1207.85,557.889 1207.76,557.853 1207.68,557.793 C 1207.16,557.415 1207.38,556.766 1207.81,556.523 C 1208.03,556.399 1208.3,556.387 1208.57,556.583 Z" fill="#2c1028" marker-start="none" marker-end="none"/>
    <path d="M 1215.47,595.947 C 1215.83,596.213 1215.83,596.61 1215.65,596.91 C 1215.45,597.259 1215,597.463 1214.58,597.155 C 1214.52,597.109 1214.47,597.063 1214.43,597.013 C 1213.94,596.406 1214.75,595.411 1215.47,595.947 Z" fill="#2c1028" marker-start="none" marker-end="none"/>
   </g>
   <path d="M 1078.23,388.944 C 1077.8,387.877 1076.95,387.236 1075.99,387.025 C 1075.45,386.917 1074.92,386.917 1074.39,387.131 C 1068.94,389.158 1064.04,387.236 1063.93,387.236 C 1063.93,387.236 1063.93,387.236 1063.82,387.236 C 1059.45,384.463 1057.85,380.302 1057.74,380.302 C 1057.63,380.196 1057.63,379.983 1057.53,379.874 C 1056.78,378.594 1055.29,378.059 1053.79,378.594 C 1052.19,379.235 1051.44,380.943 1052.09,382.544 C 1052.19,382.756 1053.15,385.208 1055.5,387.985 C 1055.61,388.09 1055.71,388.197 1055.82,388.306 C 1054.22,387.985 1052.19,387.131 1050.16,385.208 C 1049.74,384.782 1049.2,384.57 1048.67,384.463 C 1047.71,384.251 1046.64,384.57 1045.9,385.423 C 1045.68,385.637 1045.47,385.958 1045.36,386.171 C 1044.83,387.343 1045.04,388.732 1046,389.693 C 1050.48,393.854 1055.07,394.813 1058.7,394.495 C 1058.06,398.443 1058.06,402.818 1058.06,402.818 C 1059.02,403.246 1059.77,403.566 1060.52,403.778 C 1065,404.847 1066.81,401.967 1066.81,401.967 C 1066.81,401.967 1066.81,397.912 1066.07,394.175 C 1068.73,394.497 1072.36,394.497 1076.31,393.002 C 1078.02,392.253 1078.87,390.546 1078.23,388.944 Z" fill="#f9c710" stroke-width="0.631" marker-start="none" marker-end="none"/>
   <path d="M 1061.8,401.751 L 1061.16,392.574 C 1061.16,392.574 1051.12,393.534 1045.58,386.171 L 1045.58,386.171 C 1045.04,387.343 1045.26,388.732 1046.22,389.693 C 1050.7,393.854 1055.29,394.813 1058.91,394.495 C 1058.27,398.443 1058.27,402.818 1058.27,402.818 C 1059.24,403.246 1059.98,403.561 1060.73,403.778 L 1061.8,401.751 Z" fill="#ffd95f" stroke-width="0.631" marker-start="none" marker-end="none"/>
   <path d="M 1057.63,379.874 C 1056.89,378.594 1055.39,378.059 1053.9,378.594 C 1052.3,379.235 1051.55,380.943 1052.19,382.544 C 1052.3,382.756 1053.26,385.211 1055.61,387.985 C 1055.71,388.094 1055.82,388.094 1055.92,388.197 C 1055.92,388.197 1053.58,380.409 1057.63,379.874 Z" fill="#ffd95f" stroke-width="0.631" marker-start="none" marker-end="none"/>
   <path d="M 1054.96,377.6 C 1054.49,377.6 1054.01,377.683 1053.53,377.853 C 1051.5,378.664 1050.56,380.847 1051.35,382.833 C 1051.36,382.855 1051.37,382.876 1051.38,382.895 L 1051.42,382.985 C 1052.04,384.39 1052.78,385.62 1053.48,386.641 C 1052.61,386.196 1051.67,385.557 1050.7,384.639 C 1050.24,384.171 1049.6,383.849 1048.82,383.692 C 1047.56,383.414 1046.2,383.876 1045.3,384.904 C 1045.04,385.168 1044.78,385.57 1044.66,385.817 C 1043.96,387.351 1044.28,389.08 1045.44,390.25 C 1050.01,394.487 1054.51,395.415 1057.78,395.334 C 1057.28,399.002 1057.27,402.653 1057.27,402.82 C 1057.27,403.129 1057.45,403.413 1057.74,403.538 C 1058.7,403.963 1059.49,404.305 1060.3,404.538 C 1065.31,405.731 1067.39,402.523 1067.47,402.385 C 1067.56,402.26 1067.6,402.112 1067.6,401.967 C 1067.6,401.813 1067.59,398.491 1067.02,395.062 C 1070.37,395.322 1073.58,394.875 1076.59,393.736 C 1078.74,392.795 1079.74,390.618 1078.96,388.655 L 1078.96,388.655 C 1078.46,387.416 1077.44,386.543 1076.15,386.255 C 1075.39,386.101 1074.72,386.15 1074.1,386.399 C 1071.47,387.378 1068.94,387.666 1066.6,387.247 C 1065.05,386.974 1063.57,386.234 1062.32,385.111 C 1060.12,383.151 1059.03,381.033 1058.61,380.235 C 1058.54,380.105 1058.47,379.97 1058.39,379.852 C 1058.34,379.717 1058.28,379.565 1058.17,379.42 C 1057.46,378.249 1056.27,377.6 1054.96,377.6 M 1052.81,382.233 C 1052.35,381.05 1052.89,379.803 1054.09,379.324 C 1055.18,378.932 1056.28,379.302 1056.85,380.272 C 1056.86,380.291 1056.87,380.31 1056.88,380.329 C 1056.94,380.473 1056.99,380.64 1057.13,380.796 C 1057.15,380.838 1057.18,380.895 1057.21,380.961 C 1057.62,381.743 1058.86,384.132 1061.27,386.285 C 1062.74,387.603 1064.49,388.474 1066.32,388.799 C 1068.95,389.264 1071.76,388.95 1074.66,387.868 C 1075.02,387.726 1075.38,387.705 1075.83,387.796 C 1076.6,387.966 1077.2,388.48 1077.5,389.237 L 1077.5,389.237 C 1077.97,390.412 1077.34,391.692 1075.99,392.281 C 1072.95,393.431 1069.63,393.813 1066.16,393.396 C 1065.9,393.363 1065.66,393.455 1065.48,393.64 C 1065.32,393.826 1065.24,394.083 1065.29,394.33 C 1065.91,397.414 1066.01,400.773 1066.02,401.708 C 1065.59,402.239 1063.97,403.794 1060.7,403.014 C 1060.15,402.856 1059.54,402.61 1058.85,402.311 C 1058.88,401.05 1058.98,397.683 1059.48,394.621 C 1059.52,394.382 1059.44,394.138 1059.28,393.96 C 1059.11,393.783 1058.87,393.693 1058.63,393.713 C 1055.66,393.973 1051.14,393.388 1046.54,389.119 C 1045.86,388.435 1045.67,387.399 1046.08,386.498 C 1046.14,386.37 1046.31,386.123 1046.45,385.983 C 1047.01,385.345 1047.78,385.072 1048.5,385.232 C 1048.99,385.329 1049.35,385.504 1049.61,385.771 C 1051.93,387.968 1054.18,388.782 1055.67,389.077 C 1056,389.148 1056.35,388.984 1056.52,388.679 C 1056.68,388.373 1056.62,387.995 1056.38,387.748 L 1056.08,387.454 C 1055.15,386.347 1053.84,384.572 1052.86,382.35 C 1052.84,382.301 1052.82,382.258 1052.81,382.233 M 1058.29,379.745 L 1058.29,379.745 C 1058.32,379.77 1058.34,379.794 1058.35,379.813 C 1058.34,379.788 1058.32,379.766 1058.29,379.745 Z" fill="#ba5d08" stroke-width="0.631" marker-start="none" marker-end="none"/>
   <path d="M 1102.88,388.944 C 1103.31,387.877 1104.16,387.236 1105.12,387.025 C 1105.65,386.917 1106.19,386.917 1106.72,387.131 C 1112.16,389.158 1117.07,387.236 1117.18,387.236 C 1117.18,387.236 1117.18,387.236 1117.29,387.236 C 1121.66,384.463 1123.26,380.302 1123.37,380.302 C 1123.47,380.196 1123.47,379.983 1123.58,379.874 C 1124.33,378.594 1125.82,378.059 1127.32,378.594 C 1128.92,379.235 1129.66,380.943 1129.02,382.544 C 1128.92,382.756 1127.96,385.208 1125.61,387.985 C 1125.5,388.09 1125.39,388.197 1125.29,388.306 C 1126.89,387.985 1128.92,387.131 1130.94,385.208 C 1131.37,384.782 1131.91,384.57 1132.44,384.463 C 1133.4,384.251 1134.47,384.57 1135.21,385.423 C 1135.42,385.637 1135.64,385.958 1135.75,386.171 C 1136.28,387.343 1136.07,388.732 1135.11,389.693 C 1130.62,393.854 1126.04,394.813 1122.41,394.495 C 1123.05,398.443 1123.05,402.818 1123.05,402.818 C 1122.09,403.246 1121.34,403.566 1120.59,403.778 C 1116.11,404.847 1114.3,401.967 1114.3,401.967 C 1114.3,401.967 1114.3,397.912 1115.05,394.175 C 1112.38,394.497 1108.75,394.497 1104.8,393.002 C 1103.09,392.253 1102.24,390.546 1102.88,388.944 Z" fill="#f9c710" stroke-width="0.631" marker-start="none" marker-end="none"/>
   <path d="M 1119.42,401.751 L 1120.06,392.574 C 1120.06,392.574 1130.09,393.534 1135.64,386.171 L 1135.64,386.171 C 1136.17,387.343 1135.96,388.732 1135,389.693 C 1130.52,393.854 1125.93,394.813 1122.3,394.495 C 1122.94,398.443 1122.94,402.818 1122.94,402.818 C 1121.98,403.246 1121.24,403.561 1120.49,403.778 L 1119.42,401.751 Z" fill="#ffd95f" stroke-width="0.631" marker-start="none" marker-end="none"/>
   <path d="M 1123.47,379.874 C 1124.22,378.594 1125.71,378.059 1127.21,378.594 C 1128.81,379.235 1129.56,380.943 1128.92,382.544 C 1128.81,382.756 1127.85,385.211 1125.5,387.985 C 1125.39,388.094 1125.29,388.094 1125.18,388.197 C 1125.18,388.197 1127.53,380.409 1123.47,379.874 Z" fill="#ffd95f" stroke-width="0.631" marker-start="none" marker-end="none"/>
   <path d="M 1126.15,377.604 C 1124.84,377.604 1123.65,378.251 1122.94,379.415 C 1122.82,379.573 1122.76,379.735 1122.73,379.841 C 1122.73,379.845 1122.72,379.85 1122.72,379.852 C 1122.64,379.967 1122.57,380.103 1122.5,380.235 C 1122,381.198 1120.49,384.123 1117.25,386.323 C 1116.96,386.517 1116.65,386.671 1116.33,386.782 C 1115.32,387.131 1111.66,388.13 1107,386.394 C 1106.39,386.15 1105.71,386.102 1104.97,386.254 C 1103.66,386.543 1102.64,387.416 1102.15,388.655 C 1101.36,390.614 1102.37,392.795 1104.48,393.723 C 1107.52,394.875 1110.74,395.319 1114.08,395.062 C 1113.52,398.491 1113.51,401.813 1113.51,401.967 C 1113.51,402.112 1113.55,402.26 1113.63,402.383 C 1113.72,402.521 1115.8,405.731 1120.77,404.544 C 1121.62,404.305 1122.41,403.962 1123.37,403.538 C 1123.65,403.411 1123.83,403.129 1123.83,402.818 C 1123.83,402.653 1123.83,399.002 1123.33,395.332 C 1126.59,395.423 1131.1,394.49 1135.64,390.269 C 1136.83,389.077 1137.14,387.349 1136.46,385.844 C 1136.32,385.57 1136.07,385.168 1135.77,384.868 C 1134.9,383.874 1133.55,383.414 1132.27,383.695 C 1131.51,383.846 1130.87,384.171 1130.39,384.653 C 1129.43,385.559 1128.49,386.198 1127.62,386.641 C 1128.33,385.624 1129.07,384.387 1129.69,382.985 L 1129.73,382.893 C 1130.14,381.865 1130.13,380.824 1129.73,379.899 C 1129.33,378.973 1128.58,378.251 1127.61,377.863 C 1127.12,377.688 1126.63,377.604 1126.15,377.604 M 1124.23,380.331 C 1124.24,380.313 1124.25,380.291 1124.26,380.272 C 1124.83,379.302 1125.92,378.93 1127.05,379.336 C 1127.61,379.56 1128.06,379.983 1128.29,380.522 C 1128.52,381.053 1128.53,381.661 1128.3,382.233 C 1128.29,382.258 1128.27,382.301 1128.25,382.35 C 1127.27,384.572 1125.96,386.347 1125.03,387.454 L 1124.73,387.748 C 1124.49,387.995 1124.43,388.37 1124.6,388.679 C 1124.76,388.984 1125.1,389.144 1125.44,389.077 C 1126.93,388.782 1129.18,387.968 1131.49,385.782 C 1131.77,385.504 1132.12,385.333 1132.6,385.237 C 1133.33,385.072 1134.1,385.347 1134.62,385.943 C 1134.8,386.126 1134.97,386.37 1135.04,386.526 C 1135.44,387.399 1135.25,388.437 1134.55,389.139 C 1129.97,393.391 1125.45,393.976 1122.48,393.713 C 1122.23,393.692 1122,393.783 1121.83,393.96 C 1121.67,394.138 1121.6,394.382 1121.63,394.621 C 1122.13,397.686 1122.23,401.055 1122.26,402.311 C 1121.56,402.612 1120.96,402.858 1120.38,403.025 C 1117.13,403.796 1115.53,402.246 1115.09,401.708 C 1115.1,400.773 1115.2,397.418 1115.82,394.33 C 1115.87,394.083 1115.8,393.827 1115.62,393.644 C 1115.45,393.457 1115.2,393.363 1114.95,393.396 C 1111.48,393.813 1108.16,393.431 1105.08,392.266 C 1103.78,391.694 1103.14,390.412 1103.61,389.24 C 1103.91,388.481 1104.51,387.966 1105.3,387.794 C 1105.73,387.705 1106.09,387.726 1106.43,387.862 C 1111.6,389.79 1115.71,388.662 1116.85,388.269 C 1117.3,388.115 1117.74,387.894 1118.14,387.624 C 1121.7,385.2 1123.35,382.01 1123.9,380.961 C 1123.93,380.895 1123.96,380.838 1123.98,380.796 C 1124.12,380.628 1124.19,380.451 1124.23,380.336 C 1124.22,380.334 1124.22,380.334 1124.23,380.331 M 1122.75,379.819 C 1122.76,379.803 1122.78,379.773 1122.81,379.745 L 1122.81,379.745 C 1122.79,379.77 1122.77,379.796 1122.75,379.819 M 1124.13,380.435 C 1124.13,380.432 1124.13,380.432 1124.14,380.432 C 1124.13,380.432 1124.13,380.432 1124.13,380.435 Z" fill="#ba5d08" stroke-width="0.631" marker-start="none" marker-end="none"/>
   <path d="M 1082.61,411.675 C 1079.3,407.94 1075.99,405.272 1072.79,403.561 L 1072.79,403.561 C 1059.55,396.844 1046.96,406.66 1038.43,425.015 C 1032.45,437.925 1029.68,455.317 1026.15,469.404 C 1026.15,469.404 1024.24,483.171 1023.38,488.293 L 1023.38,488.293 C 1023.27,488.933 1023.17,489.466 1023.06,489.786 L 1025.84,481.571 L 1033.94,471.648 L 1082.39,411.996 L 1082.61,411.675 Z" fill="#23d480" stroke-width="0.631" marker-start="none" marker-end="none"/>
   <path d="M 1162,489.786 C 1162,489.786 1161.89,489.363 1161.79,488.508 L 1161.79,488.508 C 1161.46,487.227 1161.04,485.093 1160.4,482.211 C 1159.65,479.119 1158.8,475.166 1157.62,470.793 L 1157.62,470.793 C 1155.38,462.043 1152.5,451.265 1149.08,441.34 C 1147.06,435.366 1144.93,429.709 1142.68,424.905 C 1134.14,406.552 1121.66,396.734 1108.32,403.459 L 1108.32,403.459 C 1106.29,404.419 1104.37,405.807 1102.35,407.62 L 1102.35,407.62 C 1101.17,408.687 1100,409.862 1098.83,411.144 C 1098.72,411.249 1098.61,411.357 1098.51,411.57 L 1154.85,481.038 L 1155.27,481.463 L 1161.36,488.933 L 1162,489.786 L 1162,489.786 Z" fill="#23d480" stroke-width="0.631" marker-start="none" marker-end="none"/>
   <path d="M 1059.05,590.201 L 1054.25,585.826 L 1031.2,564.805 L 1023.09,557.442 L 1023.09,557.442 C 1017.64,561.178 1012.2,568.966 1012.95,574.301 C 1013.16,576.009 1014.34,576.649 1015.72,576.649 C 1017.22,576.649 1019.03,576.009 1020.42,575.37 L 1020.42,575.37 C 1021.59,574.834 1022.44,574.301 1022.55,574.301 C 1022.55,574.301 1022.34,574.621 1022.02,575.155 C 1019.99,578.357 1013.7,589.133 1016.15,594.894 C 1017.75,598.525 1020.95,597.884 1023.62,596.498 C 1025.97,595.323 1027.89,593.51 1028,593.4 C 1025.86,596.603 1024.26,603.218 1024.05,608.662 C 1023.72,615.707 1025.86,620.507 1032.69,612.505 C 1036.21,608.448 1039.95,604.822 1043.36,601.723 C 1051.9,594.256 1059.05,590.201 1059.05,590.201 Z" fill="#23d480" stroke-width="0.631" marker-start="none" marker-end="none"/>
   <path d="M 1022.13,575.155 C 1020.1,578.357 1013.8,589.135 1016.26,594.894 C 1017.86,598.525 1021.06,597.884 1023.73,596.498 C 1023.73,596.392 1015.94,594.894 1022.13,575.155 Z" fill="#43c889" stroke-width="0.631" marker-start="none" marker-end="none"/>
   <path d="M 1026.29,562.564 L 1023.09,557.336 C 1017.64,561.069 1012.2,568.861 1012.95,574.196 C 1013.16,575.902 1014.34,576.541 1015.72,576.541 L 1020.42,575.261 L 1020.42,575.261 C 1020.52,575.37 1014.87,571.529 1026.29,562.564 Z" fill="#43c889" stroke-width="0.631" marker-start="none" marker-end="none"/>
   <path d="M 1059.05,590.201 C 1059.05,590.201 1059.05,590.31 1059.05,590.201 C 1059.05,590.31 1059.05,590.31 1059.05,590.201 C 1058.94,590.31 1058.94,590.31 1058.84,590.31 L 1058.84,590.31 C 1058.84,590.31 1058.73,590.31 1058.73,590.413 L 1058.73,590.413 C 1058.73,590.413 1058.62,590.523 1058.52,590.523 L 1058.52,590.523 C 1058.41,590.523 1058.41,590.628 1058.3,590.628 L 1058.3,590.628 C 1058.19,590.736 1057.98,590.842 1057.77,590.951 L 1057.77,590.951 C 1057.66,591.054 1057.56,591.054 1057.45,591.163 L 1057.45,591.163 C 1057.23,591.267 1057.02,591.482 1056.7,591.589 L 1056.7,591.589 C 1053.92,593.402 1048.91,596.818 1043.36,601.619 L 1043.36,601.619 C 1039.84,604.61 1036.21,608.236 1032.69,612.398 C 1025.86,620.403 1023.72,615.493 1024.05,608.556 L 1024.05,608.556 C 1024.05,608.556 1026.82,614.105 1031.41,606.53 C 1032.16,605.357 1040.8,586.896 1030.98,568.966 C 1030.88,568.861 1030.88,568.754 1030.77,568.541 C 1028.74,564.911 1029.17,563.952 1031.2,564.699 L 1054.25,585.72 L 1059.05,590.201 L 1059.05,590.201 Z" fill="#20b26c" stroke-width="0.631" marker-start="none" marker-end="none"/>
   <path d="M 1023.19,556.587 C 1022.98,556.587 1022.87,556.587 1022.77,556.696 C 1017,560.643 1011.46,568.645 1012.2,574.408 C 1012.42,576.009 1013.27,576.756 1014.01,577.077 C 1015.83,577.931 1018.39,577.184 1020.42,576.33 C 1017.86,580.811 1013.16,589.776 1015.51,595.109 C 1016.26,596.818 1017.43,597.884 1018.93,598.208 C 1021.17,598.633 1023.83,597.458 1025.76,596.179 C 1023.09,603.008 1021.91,614.212 1025.33,616.773 C 1027.25,618.267 1030.02,616.989 1033.44,612.933 C 1045.28,599.166 1059.47,591.054 1059.58,590.951 C 1059.8,590.842 1060.01,590.628 1060.01,590.31 C 1060.01,589.989 1059.9,589.776 1059.69,589.564 L 1023.72,556.696 C 1023.62,556.587 1023.41,556.587 1023.19,556.587 M 1015.83,575.795 C 1015.4,575.795 1015.08,575.687 1014.76,575.583 C 1014.44,575.475 1014.01,575.155 1013.91,574.196 C 1013.27,569.498 1018.18,562.244 1023.19,558.51 L 1057.77,590.097 C 1054.25,592.233 1042.4,600.02 1032.16,611.867 C 1029.49,614.958 1027.46,616.238 1026.4,615.493 C 1023.41,613.251 1025.54,598.847 1028.85,593.831 C 1029.06,593.512 1029.06,592.976 1028.74,592.764 C 1028.42,592.443 1027.89,592.443 1027.57,592.764 C 1026.18,594.043 1022.02,597.246 1019.35,596.605 C 1018.39,596.392 1017.65,595.752 1017.11,594.469 C 1014.45,588.175 1023.41,574.836 1023.51,574.729 C 1023.73,574.408 1023.73,573.982 1023.41,573.663 C 1023.09,573.342 1022.66,573.342 1022.34,573.557 C 1020.52,574.517 1017.75,575.795 1015.83,575.795 Z" fill="#072032" stroke-width="0.631" marker-start="none" marker-end="none"/>
   <path d="M 1123.16,589.989 L 1127.96,585.505 L 1150.8,564.269 L 1158.8,556.8 L 1158.8,556.8 C 1164.35,560.537 1169.79,568.22 1169.04,573.555 C 1168.83,575.261 1167.65,575.902 1166.27,575.902 C 1164.77,575.902 1162.96,575.261 1161.46,574.621 L 1161.46,574.621 C 1160.29,574.089 1159.33,573.555 1159.33,573.555 C 1159.33,573.555 1159.54,573.877 1159.86,574.408 C 1161.89,577.503 1168.3,588.282 1165.84,594.043 C 1164.35,597.672 1161.04,597.031 1158.37,595.645 C 1156.02,594.469 1154.1,592.658 1154,592.658 C 1156.13,595.752 1157.84,602.477 1158.05,607.81 C 1158.37,614.853 1156.34,619.655 1149.41,611.757 C 1145.89,607.702 1142.15,604.075 1138.63,601.085 C 1130.41,593.937 1123.16,589.989 1123.16,589.989 Z" fill="#23d480" stroke-width="0.631" marker-start="none" marker-end="none"/>
   <path d="M 1160.08,574.621 C 1162.11,577.718 1168.51,588.495 1166.05,594.256 C 1164.56,597.884 1161.25,597.246 1158.59,595.86 C 1158.59,595.858 1166.37,594.363 1160.08,574.621 Z" fill="#43c889" stroke-width="0.631" marker-start="none" marker-end="none"/>
   <path d="M 1155.81,562.138 L 1159.01,556.911 C 1164.56,560.643 1170,568.326 1169.25,573.663 C 1169.04,575.37 1167.87,576.009 1166.48,576.009 L 1161.68,574.729 L 1161.68,574.729 C 1161.68,574.836 1167.33,570.993 1155.81,562.138 Z" fill="#43c889" stroke-width="0.631" marker-start="none" marker-end="none"/>
   <path d="M 1123.26,589.989 C 1123.37,590.097 1123.37,590.097 1123.47,590.097 L 1123.47,590.097 C 1123.47,590.097 1123.58,590.097 1123.58,590.201 L 1123.58,590.201 C 1123.58,590.201 1123.69,590.31 1123.8,590.31 L 1123.8,590.31 C 1123.9,590.31 1123.9,590.417 1124.01,590.417 L 1124.01,590.417 C 1124.11,590.523 1124.33,590.628 1124.54,590.738 L 1124.54,590.738 C 1124.65,590.845 1124.76,590.845 1124.86,590.951 L 1124.86,590.951 C 1125.08,591.058 1125.29,591.269 1125.61,591.379 L 1125.61,591.379 C 1128.38,593.084 1133.4,596.498 1139.05,601.302 L 1139.05,601.302 C 1142.58,604.29 1146.31,607.917 1149.83,611.973 C 1156.66,619.87 1158.8,615.066 1158.48,608.023 L 1158.48,608.023 C 1158.48,608.023 1155.7,613.574 1151.11,606.104 C 1150.37,604.928 1141.51,586.47 1151.22,568.541 C 1151.33,568.433 1151.33,568.328 1151.43,568.115 C 1153.46,564.485 1152.93,563.526 1151.01,564.274 L 1128.17,585.508 L 1123.26,589.989 C 1123.16,589.989 1123.16,589.989 1123.26,589.989 Z" fill="#20b26c" stroke-width="0.631" marker-start="none" marker-end="none"/>
   <path d="M 1158.9,556.057 C 1158.69,556.057 1158.48,556.162 1158.37,556.27 L 1122.62,589.349 C 1122.41,589.561 1122.3,589.776 1122.41,590.097 C 1122.41,590.413 1122.62,590.628 1122.84,590.736 C 1122.94,590.842 1137.24,598.847 1149.08,612.505 C 1152.5,616.45 1155.28,617.732 1157.19,616.238 C 1160.61,613.677 1159.33,602.367 1156.66,595.645 C 1158.59,596.926 1161.25,598.099 1163.49,597.672 C 1164.99,597.352 1166.16,596.285 1166.91,594.579 C 1169.15,589.241 1164.56,580.17 1161.89,575.795 C 1163.92,576.649 1166.48,577.394 1168.29,576.541 C 1169.04,576.221 1169.89,575.475 1170.11,573.767 C 1170.85,568.007 1165.2,560.003 1159.44,556.162 C 1159.23,556.057 1159.01,556.057 1158.9,556.057 M 1124.65,589.776 L 1159.01,557.977 C 1164.03,561.603 1169.04,568.861 1168.4,573.555 C 1168.29,574.517 1167.87,574.836 1167.55,574.942 C 1165.94,575.795 1162,574.089 1159.97,572.912 C 1159.65,572.701 1159.23,572.807 1158.9,573.023 C 1158.59,573.342 1158.59,573.767 1158.8,574.089 C 1158.9,574.196 1167.97,587.534 1165.31,593.828 C 1164.77,595.005 1164.03,595.752 1163.06,595.964 C 1160.29,596.605 1156.13,593.402 1154.74,592.121 C 1154.42,591.802 1153.99,591.802 1153.57,592.121 C 1153.25,592.443 1153.14,592.871 1153.46,593.19 C 1156.77,598.206 1159.01,612.61 1156.13,614.853 C 1155.06,615.599 1152.93,614.318 1150.36,611.328 C 1140.12,599.594 1128.06,591.908 1124.65,589.776 Z" fill="#072032" stroke-width="0.631" marker-start="none" marker-end="none"/>
   <path d="M 1161.46,489.786 C 1157.19,463.427 1153.25,435.577 1131.59,419.678 C 1118.99,410.391 1102.35,410.713 1086.56,411.675 C 1054.01,412.528 1035.33,442.512 1027.54,470.898 C 1013.99,519.239 1012.39,584.226 1067.67,598.31 C 1108.54,610.051 1157.84,589.882 1162,540.583 C 1162.75,523.721 1163.49,503.874 1161.46,489.786 Z" fill="#23d480" stroke-width="0.631" marker-start="none" marker-end="none"/>
   <path d="M 1054.43,580.065 C 1071.23,580.065 1084.85,566.446 1084.85,549.649 C 1084.85,532.854 1071.23,519.239 1054.43,519.239 C 1037.64,519.239 1024.02,532.854 1024.02,549.649 C 1024.02,566.446 1037.64,580.065 1054.43,580.065 Z" fill="#34f096" stroke-width="0.705" marker-start="none" marker-end="none"/>
   <path d="M 1054.43,518.385 L 1054.33,518.385 C 1037.04,518.493 1023.17,532.47 1023.17,549.759 C 1023.17,558.083 1026.48,565.978 1032.45,571.846 C 1038.32,577.718 1046.22,580.921 1054.43,580.921 L 1054.54,580.921 C 1071.83,580.811 1085.7,566.832 1085.7,549.547 L 1085.7,549.547 C 1085.6,532.364 1071.61,518.385 1054.43,518.385 M 1054.43,579.21 C 1046.54,579.21 1039.17,576.115 1033.62,570.674 C 1027.97,565.126 1024.87,557.655 1024.87,549.759 C 1024.77,533.43 1038,520.201 1054.33,520.093 L 1054.43,520.093 C 1070.65,520.093 1083.99,533.324 1083.99,549.547 C 1084.1,565.872 1070.87,579.21 1054.43,579.21 C 1054.54,579.21 1054.43,579.21 1054.43,579.21" fill="#072032" stroke-width="0.631"/>
   <path d="M 1072.79,403.561 C 1035.82,390.513 1028.11,461.298 1023.38,488.296 L 1023.38,488.296 C 1023.38,488.402 1023.38,488.508 1023.38,488.508 L 1023.38,488.508 C 1023.27,488.933 1023.27,489.255 1023.17,489.681 C 1019.63,512.106 1019.63,536.091 1019.63,536.091 C 1019.63,536.091 1034.52,400.467 1072.79,403.561 Z" fill="#20b26c" stroke-width="0.631" marker-start="none" marker-end="none"/>
   <path d="M 1161.89,489.786 C 1161.89,489.786 1161.89,489.363 1161.68,488.611 L 1161.68,488.611 C 1161.36,487.332 1160.93,485.197 1160.29,482.317 C 1158.26,469.619 1156.13,460.12 1152.71,450.518 C 1151.54,447.315 1150.37,444.328 1148.98,441.445 C 1146.95,435.471 1144.82,429.815 1142.58,425.015 C 1134.04,406.66 1121.55,396.844 1108.22,403.561 L 1108.22,403.561 C 1106.19,404.526 1104.27,405.911 1102.24,407.727 C 1115.58,403.778 1123.26,406.978 1131.48,419.678 C 1135.53,425.972 1139.59,434.513 1144.5,445.609 C 1148.98,455.745 1152.29,468.338 1154.85,481.038 C 1160.61,510.273 1161.79,539.941 1161.89,540.474 C 1162,539.408 1162,538.34 1162.11,537.273 C 1162.74,521.267 1163.39,502.914 1161.46,489.681 C 1161.46,489.466 1161.36,489.146 1161.36,488.933 L 1161.89,489.786 Z" fill="#43c889" stroke-width="0.631" marker-start="none" marker-end="none"/>
   <path d="M 1097.01,556.638 C 1100.98,572.9 1117.38,582.864 1133.64,578.895 C 1149.9,574.926 1159.86,558.526 1155.89,542.266 C 1151.92,526.006 1135.53,516.039 1119.27,520.009 C 1103.01,523.977 1093.04,540.374 1097.01,556.638 Z" fill="#34f096" stroke-width="0.705" marker-start="none" marker-end="none"/>
   <path d="M 1126.46,518.281 L 1126.36,518.281 C 1109.17,518.385 1095.3,532.364 1095.3,549.547 C 1095.41,566.618 1109.28,580.598 1126.46,580.598 L 1126.57,580.598 C 1143.75,580.492 1157.62,566.513 1157.62,549.333 C 1157.62,541.008 1154.32,533.218 1148.45,527.35 C 1142.47,521.48 1134.68,518.281 1126.46,518.281 M 1126.46,578.888 C 1118.67,578.888 1111.31,575.902 1105.76,570.352 C 1100.21,564.805 1097.12,557.442 1097.12,549.543 C 1097.01,533.324 1110.24,520.093 1126.46,519.986 L 1126.57,519.986 C 1134.36,519.986 1141.72,522.974 1147.27,528.525 C 1152.82,534.073 1155.91,541.436 1155.91,549.333 C 1155.91,565.552 1142.79,578.784 1126.46,578.888 C 1126.57,578.888 1126.46,578.888 1126.46,578.888 Z" fill="#072032" stroke-width="0.631" marker-start="none" marker-end="none"/>
   <path d="M 1054.48,573.342 C 1067.57,573.342 1078.17,562.732 1078.17,549.644 C 1078.17,536.56 1067.57,525.953 1054.48,525.953 C 1041.39,525.953 1030.79,536.56 1030.79,549.644 C 1030.79,562.732 1041.39,573.342 1054.48,573.342 Z" fill="#23d580" stroke-width="0.705" marker-start="none" marker-end="none"/>
   <path d="M 1126.46,573.555 C 1139.78,573.555 1150.58,562.757 1150.58,549.44 C 1150.58,536.12 1139.78,525.323 1126.46,525.323 C 1113.14,525.323 1102.35,536.12 1102.35,549.44 C 1102.35,562.757 1113.14,573.555 1126.46,573.555 Z" fill="#23d580" stroke-width="0.705" marker-start="none" marker-end="none"/>
   <path d="M 1064.14,582.304 C 1069.27,583.266 1073,586.041 1072.58,588.282 C 1072.15,590.628 1067.67,591.695 1062.54,590.736 C 1057.42,589.776 1053.69,587 1054.11,584.761 C 1054.65,582.413 1059.13,581.346 1064.14,582.304 Z" fill="#34f096" stroke-width="0.705" marker-start="none" marker-end="none"/>
   <path d="M 1118.78,582.628 C 1123.8,581.449 1128.38,582.304 1128.92,584.652 C 1129.45,587 1125.82,589.776 1120.81,591.054 C 1115.79,592.23 1111.2,591.377 1110.67,589.03 C 1110.03,586.68 1113.66,583.8 1118.78,582.628 Z" fill="#34f096" stroke-width="0.705" marker-start="none" marker-end="none"/>
   <path d="M 1060.52,581.133 C 1059.34,581.133 1058.27,581.237 1057.21,581.449 C 1054.97,581.987 1053.58,583.054 1053.26,584.548 C 1052.73,587.428 1056.57,590.413 1062.33,591.589 C 1064.89,592.123 1067.45,592.123 1069.48,591.589 C 1071.72,591.054 1073.11,589.989 1073.43,588.495 C 1073.96,585.613 1070.12,582.628 1064.36,581.449 L 1064.36,581.449 C 1062.97,581.237 1061.69,581.133 1060.52,581.133 M 1066.17,590.31 C 1065.1,590.31 1063.82,590.201 1062.65,589.989 C 1057.74,589.029 1054.65,586.574 1054.97,584.973 C 1055.07,584.226 1056.03,583.585 1057.63,583.159 C 1059.45,582.731 1061.69,582.731 1064.04,583.159 C 1068.94,584.12 1072.04,586.574 1071.72,588.175 C 1071.61,588.923 1070.65,589.561 1069.06,589.989 C 1068.2,590.201 1067.24,590.31 1066.17,590.31 Z" fill="#23d580" stroke-width="0.631" marker-start="none" marker-end="none"/>
   <path d="M 1123.05,581.237 C 1121.66,581.237 1120.17,581.449 1118.56,581.772 C 1116,582.413 1113.66,583.372 1112.06,584.652 C 1110.24,586.041 1109.39,587.641 1109.82,589.135 C 1110.46,592.018 1115.26,593.084 1120.91,591.804 C 1126.57,590.413 1130.31,587.321 1129.66,584.438 C 1129.13,582.413 1126.57,581.237 1123.05,581.237 M 1116.43,590.736 C 1113.66,590.736 1111.73,589.885 1111.42,588.815 C 1111.2,588.066 1111.84,587 1113.12,586.041 C 1114.62,584.867 1116.64,584.013 1118.99,583.481 C 1123.9,582.304 1127.74,583.266 1128.06,584.867 C 1128.49,586.466 1125.5,589.029 1120.59,590.201 C 1118.99,590.523 1117.61,590.736 1116.43,590.736 Z" fill="#23d580" stroke-width="0.631" marker-start="none" marker-end="none"/>
   <path d="M 1092.21,569.072 C 1092.21,566.513 1090.5,564.485 1090.5,564.485 C 1090.5,564.485 1088.9,566.513 1088.9,569.072 C 1088.9,571.633 1090.61,573.662 1090.61,573.662 C 1090.61,573.662 1092.21,571.633 1092.21,569.072 Z" fill="#94f1c5" stroke-width="0.612" marker-start="none" marker-end="none"/>
   <path d="M 1092.21,592.761 C 1092.21,590.201 1090.5,588.175 1090.5,588.175 C 1090.5,588.175 1088.9,590.201 1088.9,592.761 C 1088.9,595.323 1090.61,597.352 1090.61,597.352 C 1090.61,597.352 1092.21,595.323 1092.21,592.761 Z" fill="#94f1c5" stroke-width="0.612" marker-start="none" marker-end="none"/>
   <path d="M 1080.58,593.3 C 1081.32,590.842 1080.36,588.495 1080.36,588.495 C 1080.36,588.495 1078.23,589.989 1077.48,592.336 C 1076.74,594.682 1077.69,597.139 1077.69,597.139 C 1077.69,597.139 1079.83,595.752 1080.58,593.3 Z" fill="#94f1c5" stroke-width="0.612" marker-start="none" marker-end="none"/>
   <path d="M 1100.64,593.19 C 1099.89,590.736 1100.85,588.388 1100.85,588.388 C 1100.85,588.388 1102.99,589.885 1103.84,592.23 C 1104.59,594.685 1103.63,597.031 1103.63,597.031 C 1103.63,597.031 1101.38,595.645 1100.64,593.19 Z" fill="#94f1c5" stroke-width="0.612" marker-start="none" marker-end="none"/>
   <path d="M 1085.91,580.706 C 1086.34,578.25 1085.16,575.902 1085.16,575.902 C 1085.16,575.902 1083.14,577.609 1082.71,580.065 C 1082.28,582.519 1083.46,584.867 1083.46,584.867 C 1083.46,584.867 1085.49,583.266 1085.91,580.706 Z" fill="#94f1c5" stroke-width="0.612" marker-start="none" marker-end="none"/>
   <path d="M 1095.2,580.706 C 1094.66,578.25 1095.94,575.902 1095.94,575.902 C 1095.94,575.902 1097.97,577.609 1098.4,580.065 C 1098.93,582.519 1097.65,584.867 1097.65,584.867 C 1097.65,584.867 1095.62,583.159 1095.2,580.706 Z" fill="#94f1c5" stroke-width="0.612" marker-start="none" marker-end="none"/>
   <path d="M 1098.51,411.675 C 1098.51,411.675 1090.61,411.461 1086.44,411.675 C 1086.44,411.675 1083.35,411.89 1081.96,411.996 C 1077.91,414.344 1056.67,428.642 1049.95,458.948 C 1043.23,489.681 1048.99,505.899 1058.38,506.86 C 1064.46,507.501 1074.92,498.858 1076.1,489.363 C 1076.1,489.363 1077.38,509.208 1090.71,510.486 C 1104.05,511.768 1105.65,489.894 1105.65,489.894 C 1105.65,489.894 1110.78,509.954 1123.8,505.153 C 1148.02,496.084 1129.13,422.771 1098.51,411.675 Z" fill="#94f1c5" stroke-width="0.612" marker-start="none" marker-end="none"/>
   <path d="M 1087.62,465.033 C 1087.41,465.033 1087.19,465.033 1086.98,465.135 C 1084.31,465.673 1083.35,468.338 1082.93,470.902 C 1082.07,469.194 1081,467.381 1079.51,466.527 C 1078.55,465.991 1077.48,465.779 1076.41,466.101 C 1074.92,466.527 1073.85,467.486 1073.22,468.874 C 1071.4,473.25 1075.24,480.825 1075.46,481.145 C 1075.67,481.573 1076.2,481.679 1076.63,481.466 C 1077.06,481.251 1077.16,480.72 1076.95,480.291 C 1075.88,478.265 1073.53,472.501 1074.82,469.514 C 1075.25,468.662 1075.88,468.021 1076.84,467.699 C 1077.48,467.486 1078.02,467.596 1078.66,467.912 C 1081,469.304 1082.61,474.314 1083.03,476.129 C 1083.14,476.557 1083.57,476.876 1083.99,476.77 C 1084.42,476.662 1084.74,476.235 1084.63,475.809 C 1084.63,475.704 1083.57,467.486 1087.19,466.74 C 1087.73,466.632 1088.05,466.74 1088.47,467.058 C 1090.07,468.449 1090.39,473.037 1090.39,474.743 C 1090.39,475.169 1090.72,475.49 1091.14,475.596 C 1091.57,475.596 1092,475.384 1092.1,474.955 C 1092.53,473.142 1094.24,468.021 1096.59,468.021 C 1097.12,468.021 1097.55,468.234 1097.97,468.662 C 1099.57,470.26 1099.89,474.424 1099.89,475.916 C 1099.89,476.344 1100.21,476.77 1100.75,476.77 C 1101.17,476.77 1101.6,476.45 1101.6,476.022 C 1101.92,473.568 1103.31,467.167 1106.61,466.955 C 1107.36,466.955 1107.79,467.058 1108.32,467.593 C 1110.35,469.94 1109.6,477.301 1109.07,479.971 C 1108.96,480.397 1109.28,480.825 1109.71,480.93 C 1110.14,481.038 1110.57,480.717 1110.67,480.291 C 1110.88,479.225 1112.49,469.834 1109.5,466.527 C 1108.75,465.673 1107.68,465.245 1106.4,465.351 C 1103.52,465.564 1101.81,468.553 1100.85,471.219 C 1100.53,469.834 1099.89,468.445 1099.04,467.593 C 1098.29,466.846 1097.44,466.527 1096.37,466.527 C 1094.13,466.527 1092.64,468.768 1091.68,470.793 C 1091.36,468.98 1090.72,466.955 1089.43,465.888 C 1089.12,465.245 1088.37,465.033 1087.62,465.033 Z" fill="#21d37e" stroke-width="0.631" marker-start="none" marker-end="none"/>
   <path d="M 1092.53,447.635 C 1092.32,447.635 1092.1,447.635 1091.89,447.743 C 1089.22,448.279 1088.26,450.945 1087.83,453.507 C 1086.98,451.799 1085.91,449.984 1084.42,449.129 C 1083.46,448.596 1082.39,448.384 1081.32,448.705 C 1079.83,449.129 1078.76,450.092 1078.12,451.478 C 1076.31,455.855 1080.15,463.427 1080.36,463.753 C 1080.58,464.178 1081.11,464.284 1081.54,464.072 C 1081.96,463.856 1082.07,463.325 1081.86,462.9 C 1080.79,460.87 1078.44,455.106 1079.73,452.118 C 1080.15,451.265 1080.79,450.624 1081.75,450.307 C 1082.39,450.092 1082.92,450.199 1083.57,450.52 C 1085.91,451.906 1087.51,456.924 1087.94,458.735 C 1088.05,459.161 1088.47,459.484 1088.9,459.376 C 1089.33,459.269 1089.65,458.841 1089.54,458.415 C 1089.54,458.307 1088.47,450.092 1092.1,449.346 C 1092.63,449.238 1092.95,449.346 1093.38,449.666 C 1094.98,451.053 1095.3,455.642 1095.3,457.349 C 1095.3,457.778 1095.62,458.094 1096.05,458.203 C 1096.48,458.203 1096.9,457.99 1097.01,457.563 C 1097.44,455.855 1099.15,450.733 1101.49,450.627 C 1101.71,450.627 1102.13,450.627 1102.56,451.478 C 1103.63,453.612 1102.88,458.948 1100.53,461.617 C 1100.21,461.936 1100.21,462.47 1100.64,462.789 C 1100.96,463.112 1101.49,463.112 1101.81,462.684 C 1104.37,459.697 1105.55,453.722 1104.05,450.733 C 1103.52,449.558 1102.56,448.916 1101.38,449.026 C 1099.25,449.129 1097.65,451.265 1096.69,453.397 C 1096.37,451.478 1095.73,449.451 1094.45,448.491 C 1093.92,447.85 1093.28,447.635 1092.53,447.635 Z" fill="#21d37e" stroke-width="0.631" marker-start="none" marker-end="none"/>
   <path d="M 1086.23,435.259 C 1085.81,435.259 1085.27,435.366 1084.85,435.471 C 1079.73,437.179 1081.86,445.609 1081.96,446.037 C 1082.07,446.461 1082.5,446.781 1083.03,446.678 C 1083.46,446.568 1083.78,446.141 1083.67,445.609 C 1083.67,445.502 1081.96,438.245 1085.49,437.072 C 1086.23,436.859 1086.98,436.859 1087.51,437.284 C 1089.43,438.46 1090.39,442.3 1090.61,443.689 C 1090.71,444.114 1091.04,444.435 1091.46,444.435 L 1091.46,444.435 C 1091.88,444.435 1092.21,444.114 1092.32,443.689 C 1092.53,442.195 1093.49,438.245 1095.73,437.392 C 1096.26,437.179 1096.59,437.284 1096.9,437.607 C 1098.08,438.674 1098.51,441.875 1098.08,443.902 C 1097.97,444.328 1098.29,444.861 1098.72,444.968 C 1099.14,445.074 1099.68,444.755 1099.79,444.328 C 1100.32,442.195 1100,438.033 1098.08,436.431 C 1097.22,435.685 1096.16,435.577 1095.09,436.003 C 1093.28,436.753 1092.1,438.674 1091.46,440.487 C 1090.82,438.886 1089.97,437.072 1088.47,436.112 C 1087.62,435.471 1086.87,435.259 1086.23,435.259 Z" fill="#21d37e" stroke-width="0.631" marker-start="none" marker-end="none"/>
   <path d="M 1100.21,541.436 C 1099.25,536.739 1097.65,530.444 1095.52,526.177 C 1094.02,523.08 1092.21,520.945 1090.18,520.945 C 1085.7,521.055 1082.5,533.54 1080.89,541.649 C 1080.15,545.385 1082.18,549.119 1085.59,550.507 C 1086.13,550.719 1086.77,550.932 1087.51,551.039 C 1089.86,551.36 1092,551.254 1093.81,550.932 C 1098.19,549.972 1101.07,545.703 1100.21,541.436 Z" fill="#f9c710" stroke-width="0.631" marker-start="none" marker-end="none"/>
   <path d="M 1095.52,526.067 C 1094.02,522.974 1092.21,520.841 1090.18,520.841 C 1085.7,520.945 1082.5,533.434 1080.89,541.542 C 1080.15,545.275 1082.18,549.011 1085.59,550.398 L 1085.59,550.398 C 1085.6,550.398 1084.21,527.243 1095.52,526.067 L 1095.52,526.067 Z" fill="#ffd95f" stroke-width="0.631" marker-start="none" marker-end="none"/>
   <path d="M 1090.18,520.093 C 1086.23,520.201 1082.82,527.35 1080.04,541.436 C 1079.62,543.783 1080.15,546.238 1081.54,548.264 C 1082.93,550.185 1085.06,551.466 1087.41,551.788 L 1087.41,551.788 C 1089.54,552.107 1091.78,552 1094.02,551.68 C 1096.37,551.254 1098.4,549.972 1099.79,547.946 C 1101.07,546.026 1101.6,543.677 1101.07,541.329 C 1098.19,527.137 1094.45,520.093 1090.18,520.093 M 1087.62,549.972 C 1085.7,549.759 1084.1,548.69 1082.93,547.198 C 1081.75,545.597 1081.32,543.568 1081.75,541.755 C 1084.21,529.269 1087.3,521.799 1090.18,521.799 L 1090.18,521.799 C 1093.38,521.799 1096.8,529.163 1099.36,541.649 C 1099.79,543.464 1099.36,545.385 1098.29,546.983 C 1097.22,548.586 1095.62,549.652 1093.7,549.972 C 1091.68,550.185 1089.65,550.293 1087.62,549.972 L 1087.62,549.972" fill="#ba5d08" stroke-width="0.631"/>
   <path d="M 1064.36,400.576 C 1063.5,400.576 1062.65,400.685 1061.8,400.789 C 1052.73,402.071 1044.19,410.606 1037.57,424.694 C 1027.01,447.422 1022.21,489.363 1022.1,489.786 C 1022.1,490.215 1022.42,490.64 1022.85,490.747 C 1023.27,490.856 1023.7,490.427 1023.81,490.002 C 1023.81,489.574 1028.71,447.955 1039.07,425.44 C 1045.36,411.89 1053.47,403.672 1062.01,402.497 C 1068.73,401.536 1075.35,404.845 1081.86,412.211 C 1082.18,412.528 1082.71,412.636 1083.03,412.315 C 1083.35,411.996 1083.46,411.461 1083.14,411.144 C 1077.16,404.1 1070.87,400.576 1064.36,400.576 Z" fill="#072032" stroke-width="0.631" marker-start="none" marker-end="none"/>
   <path d="M 1057.21,407.086 C 1055.18,408.581 1054.43,411.144 1054.43,411.144 C 1054.43,411.144 1057.1,411.249 1059.13,409.753 C 1061.16,408.261 1061.9,405.698 1061.9,405.698 C 1061.9,405.698 1059.24,405.594 1057.21,407.086 Z" fill="#94f1c5" stroke-width="0.612" marker-start="none" marker-end="none"/>
   <path d="M 1057.32,414.025 C 1055.39,415.728 1054.97,418.29 1054.97,418.29 C 1054.97,418.29 1057.63,418.187 1059.45,416.478 C 1061.37,414.771 1061.8,412.211 1061.8,412.211 C 1061.8,412.211 1059.24,412.315 1057.32,414.025 Z" fill="#94f1c5" stroke-width="0.612" marker-start="none" marker-end="none"/>
   <path d="M 1048.67,416.369 C 1047.07,418.4 1047.18,420.959 1047.18,420.959 C 1047.18,420.959 1049.74,420.319 1051.34,418.4 C 1052.94,416.369 1052.83,413.809 1052.83,413.809 C 1052.83,413.809 1050.27,414.344 1048.67,416.369 Z" fill="#94f1c5" stroke-width="0.612" marker-start="none" marker-end="none"/>
   <path d="M 1116.75,400.576 C 1110.35,400.757 1104.05,404.1 1097.97,411.036 C 1097.65,411.357 1097.65,411.89 1098.08,412.211 C 1098.4,412.531 1098.93,412.531 1099.25,412.102 C 1105.76,404.631 1112.38,401.43 1119.1,402.393 C 1127.53,403.561 1135.75,411.782 1142.04,425.333 C 1152.61,448.169 1159.86,473.568 1161.25,493.201 C 1161.25,493.629 1161.68,494.055 1162.11,493.949 C 1162.53,493.949 1162.96,493.524 1162.85,493.095 C 1161.46,473.246 1154.21,447.635 1143.54,424.586 C 1137.03,410.5 1127.67,400.27 1116.75,400.576 Z" fill="#072032" stroke-width="0.631" marker-start="none" marker-end="none"/>
   <path d="M 1123.9,407.086 C 1125.93,408.581 1126.67,411.144 1126.67,411.144 C 1126.67,411.144 1124.01,411.249 1121.98,409.753 C 1119.95,408.261 1119.2,405.698 1119.2,405.698 C 1119.2,405.698 1121.88,405.594 1123.9,407.086 Z" fill="#94f1c5" stroke-width="0.612" marker-start="none" marker-end="none"/>
   <path d="M 1123.8,414.025 C 1125.72,415.728 1126.14,418.29 1126.14,418.29 C 1126.14,418.29 1123.47,418.187 1121.66,416.478 C 1119.74,414.771 1119.31,412.211 1119.31,412.211 C 1119.31,412.211 1121.88,412.315 1123.8,414.025 Z" fill="#94f1c5" stroke-width="0.612" marker-start="none" marker-end="none"/>
   <path d="M 1132.44,416.369 C 1134.04,418.4 1133.93,420.959 1133.93,420.959 C 1133.93,420.959 1131.37,420.319 1129.77,418.4 C 1128.17,416.477 1128.28,413.809 1128.28,413.809 C 1128.28,413.809 1130.84,414.344 1132.44,416.369 Z" fill="#94f1c5" stroke-width="0.612" marker-start="none" marker-end="none"/>
   <path d="M 1091.57,410.287 C 1086.98,410.287 1082.82,410.713 1082.5,410.713 C 1082.07,410.713 1081.64,411.141 1081.75,411.675 C 1081.75,412.102 1082.23,412.521 1082.61,412.507 C 1082.61,412.507 1092.32,411.468 1098.51,412.428 C 1098.98,412.439 1099.25,412.211 1099.36,411.675 C 1099.46,411.249 1099.15,410.82 1098.61,410.713 C 1096.48,410.503 1093.92,410.287 1091.57,410.287 Z" fill="#072032" stroke-width="0.631" marker-start="none" marker-end="none"/>
   <path d="M 1054.42,568.013 C 1064.56,568.013 1072.78,559.795 1072.78,549.658 C 1072.78,539.521 1064.56,531.304 1054.42,531.304 C 1044.29,531.304 1036.07,539.521 1036.07,549.658 C 1036.07,559.795 1044.29,568.013 1054.42,568.013 Z" fill="#ffffff" stroke-width="0.631" marker-start="none" marker-end="none"/>
   <path d="M 1054.43,530.444 C 1049.31,530.444 1044.62,532.367 1040.99,535.995 C 1037.36,539.621 1035.22,544.421 1035.22,549.547 C 1035.12,560.108 1043.65,568.861 1054.33,568.966 C 1059.45,568.966 1064.36,567.044 1067.99,563.417 C 1071.61,559.79 1073.75,554.987 1073.75,549.866 C 1073.75,544.744 1071.83,539.837 1068.2,536.208 C 1064.57,532.577 1059.77,530.444 1054.65,530.444 C 1054.54,530.444 1054.54,530.444 1054.43,530.444 M 1054.43,567.259 L 1054.33,567.259 C 1044.62,567.153 1036.83,559.255 1036.93,549.547 C 1036.93,544.85 1038.85,540.474 1042.16,537.168 C 1045.47,533.965 1049.84,532.151 1054.43,532.151 L 1054.54,532.151 C 1059.24,532.151 1063.61,534.075 1066.92,537.38 C 1070.23,540.688 1072.04,545.171 1071.93,549.866 C 1071.93,554.561 1070.01,558.936 1066.71,562.244 C 1063.4,565.446 1059.02,567.259 1054.43,567.259 Z" fill="#23d580" stroke-width="0.684" marker-start="none" marker-end="none"/>
   <path d="M 1054.46,564.714 C 1062.77,564.714 1069.51,557.979 1069.51,549.668 C 1069.51,541.358 1062.77,534.624 1054.46,534.624 C 1046.15,534.624 1039.42,541.358 1039.42,549.668 C 1039.42,557.979 1046.15,564.714 1054.46,564.714 Z" fill="#aaaaaa" stroke-width="0.631" marker-start="none" marker-end="none"/>
   <path d="M 1126.47,567.804 C 1136.61,567.804 1144.83,559.587 1144.83,549.451 C 1144.83,539.312 1136.61,531.096 1126.47,531.096 C 1116.34,531.096 1108.12,539.312 1108.12,549.451 C 1108.12,559.587 1116.34,567.804 1126.47,567.804 Z" fill="#ffffff" stroke-width="0.631" marker-start="none" marker-end="none"/>
   <path d="M 1126.46,530.232 C 1121.34,530.232 1116.64,532.151 1113.02,535.78 C 1109.39,539.408 1107.26,544.209 1107.26,549.332 C 1107.15,559.896 1115.68,568.645 1126.36,568.751 C 1131.48,568.751 1136.39,566.832 1140.02,563.205 C 1143.64,559.575 1145.78,554.774 1145.78,549.652 C 1145.78,544.531 1143.86,539.621 1140.23,535.993 C 1136.6,532.364 1131.8,530.229 1126.67,530.229 C 1126.57,530.232 1126.46,530.232 1126.46,530.232 M 1126.46,567.047 L 1126.36,567.047 C 1116.64,566.938 1108.86,559.042 1108.96,549.333 C 1108.96,544.635 1110.88,540.262 1114.19,536.954 C 1117.5,533.647 1121.98,531.938 1126.67,531.938 C 1131.37,531.938 1135.75,533.86 1139.05,537.168 C 1142.36,540.474 1144.17,544.959 1144.07,549.652 C 1144.07,554.349 1142.15,558.724 1138.84,562.031 C 1135.43,565.231 1131.05,567.047 1126.46,567.047 Z" fill="#23d580" stroke-width="0.684" marker-start="none" marker-end="none"/>
   <path d="M 1126.47,564.475 C 1134.78,564.475 1141.51,557.74 1141.51,549.429 C 1141.51,541.116 1134.78,534.381 1126.47,534.381 C 1118.16,534.381 1111.42,541.116 1111.42,549.429 C 1111.42,557.74 1118.16,564.475 1126.47,564.475 Z" fill="#aaaaaa" stroke-width="0.631" marker-start="none" marker-end="none"/>
   <ellipse rx="9.34" ry="9.34" transform="translate(1126.69 549.657) rotate(90)" fill="#000000"/>
   <path d="M 1121.24,555.415 C 1121.24,553.92 1120.06,552.641 1118.56,552.641 C 1117.07,552.641 1115.79,553.812 1115.79,555.308 C 1115.79,556.8 1116.97,558.083 1118.46,558.083 C 1120.06,558.19 1121.24,556.911 1121.24,555.415 Z" fill="#ffffff" stroke-width="0.631" marker-start="none" marker-end="none"/>
   <path d="M 1220.13,524.096 C 1219.3,512.246 1214.36,504.463 1210.56,505.411 C 1210.19,505.53 1209.83,505.649 1209.54,505.905 C 1209.54,505.905 1198.76,514.888 1199.04,521.496 C 1199.35,527.999 1206.12,525.111 1206.12,525.111 C 1206.12,525.111 1199.83,533.888 1199.07,538.66 C 1198.31,543.43 1203.61,546.666 1209.21,543.228 C 1208.79,543.554 1200.91,549.24 1200.45,554.538 C 1200.17,557.562 1202.1,558.977 1204.84,559.069 L 1204.84,559.069 L 1204.84,559.069 C 1206.94,559.094 1209.47,558.351 1211.86,556.911 C 1216.54,553.99 1220.98,537.064 1220.13,524.096 Z" fill="#23d480" stroke-width="0.631" marker-start="none" marker-end="none"/>
   <path d="M 1023.06,488.933 C 1022.63,488.933 1022.31,488.552 1022.21,488.982 C 1017.62,514.7 1018.26,539.516 1020.82,551.039 C 1024.66,568.326 1034.69,582.304 1049.95,591.48 C 1063.72,599.806 1080.79,603.544 1097.97,602.049 C 1114.94,600.553 1130.52,594.043 1141.94,583.798 C 1154.85,572.169 1162.11,556.162 1162.85,537.38 C 1163.6,520.305 1163.49,504.937 1162.75,492.343 C 1162.75,491.917 1162.32,492.56 1161.89,492.668 C 1161.47,492.668 1161.06,491.656 1161.16,492.082 C 1162.02,504.569 1162,520.305 1161.25,537.273 C 1159.44,579.955 1125.93,597.884 1097.87,600.34 C 1067.45,603.005 1030.85,588.6 1022.53,550.613 C 1019.97,538.872 1019.49,513.819 1023.86,489.489 C 1023.97,489.064 1023.7,489.04 1023.27,488.933 C 1023.17,488.933 1023.17,488.933 1023.06,488.933 Z" fill="#072032" stroke-width="0.631" marker-start="none" marker-end="none"/>
   <path d="M 1080.15,597.992 C 1080.15,597.992 1077.38,603.434 1079.73,607.276 C 1082.07,611.12 1085.7,604.61 1085.7,604.61 C 1085.7,604.61 1086.13,611.651 1089.76,611.867 C 1093.38,612.079 1093.81,604.501 1093.81,604.501 C 1093.81,604.501 1095.73,609.089 1099.36,608.343 C 1102.88,607.595 1101.07,601.938 1098.72,598.738 L 1080.15,597.992 Z" fill="#23d480" stroke-width="0.631" marker-start="none" marker-end="none"/>
   <path d="M 1080.15,597.142 C 1079.84,597.142 1079.54,597.31 1079.39,597.605 C 1079.27,597.846 1076.43,603.522 1079,607.721 C 1079.83,609.083 1080.83,609.362 1081.52,609.338 C 1082.93,609.312 1084.25,608.059 1085.17,606.902 C 1085.66,609.228 1086.85,612.546 1089.7,612.712 C 1090.59,612.763 1091.39,612.478 1092.08,611.861 C 1093.36,610.723 1094.01,608.64 1094.34,606.978 C 1095.41,608.305 1097.14,609.671 1099.53,609.175 C 1100.68,608.931 1101.5,608.247 1101.9,607.193 C 1102.82,604.799 1101.34,600.876 1099.4,598.238 C 1099.13,597.861 1098.6,597.777 1098.22,598.054 C 1097.84,598.332 1097.76,598.863 1098.03,599.24 C 1099.64,601.434 1100.97,604.867 1100.31,606.591 C 1100.12,607.095 1099.76,607.389 1099.18,607.51 C 1096.3,608.112 1094.61,604.21 1094.59,604.171 C 1094.44,603.809 1094.06,603.598 1093.66,603.665 C 1093.28,603.732 1092.99,604.059 1092.96,604.452 C 1092.89,605.729 1092.38,609.319 1090.95,610.591 C 1090.6,610.909 1090.23,611.042 1089.8,611.015 C 1087.45,610.877 1086.66,606.305 1086.55,604.553 C 1086.53,604.18 1086.26,603.864 1085.89,603.78 C 1085.52,603.697 1085.14,603.864 1084.96,604.194 C 1084.16,605.61 1082.56,607.619 1081.49,607.638 C 1081.35,607.64 1080.95,607.649 1080.45,606.831 C 1078.38,603.436 1080.88,598.427 1080.91,598.375 C 1081.12,597.959 1080.95,597.446 1080.54,597.232 C 1080.41,597.171 1080.28,597.142 1080.15,597.142 Z" fill="#072032" stroke-width="0.631" marker-start="none" marker-end="none"/>
   <path d="M 1220.13,524.096 C 1219.3,512.246 1214.36,504.463 1210.56,505.411 C 1211.67,507.817 1217,520.578 1215.35,535.399 C 1213.51,551.719 1205.03,558.79 1204.87,558.965 L 1204.87,558.965 L 1204.87,558.965 C 1206.97,558.989 1209.5,558.247 1211.89,556.803 C 1216.54,553.99 1220.98,537.064 1220.13,524.096 Z" fill="#43c889" stroke-width="0.631" marker-start="none" marker-end="none"/>
   <path d="M 1212.2,504.647 C 1211.07,504.333 1210.01,504.593 1209.06,505.219 L 1209.06,505.219 C 1208.61,505.647 1197.96,514.556 1198.26,521.501 C 1198.34,523.625 1199.06,525.041 1200.38,525.849 C 1201.61,526.629 1203.06,526.586 1204.2,526.458 C 1202.29,529.363 1198.87,534.95 1198.22,538.535 C 1197.8,540.855 1198.73,543.103 1200.69,544.419 C 1201.99,545.328 1203.56,545.653 1205.14,545.533 C 1202.73,547.858 1199.83,551.156 1199.57,554.514 C 1199.4,557.126 1200.59,558.447 1201.63,559.066 C 1204.08,560.628 1208.37,559.931 1212.34,557.591 C 1217.38,554.555 1221.91,537.316 1221.01,524.119 C 1220.35,513.642 1216.43,506.585 1212.9,504.947 C 1212.62,504.759 1212.41,504.703 1212.2,504.647 M 1210.14,506.511 C 1210.72,506.007 1211.5,506.004 1212.3,506.334 C 1215.24,507.694 1218.7,514.408 1219.35,524.104 C 1220.25,537.303 1215.57,553.501 1211.54,556.042 C 1208.21,558.114 1204.52,558.647 1202.6,557.566 C 1201.66,556.974 1201.27,555.979 1201.43,554.583 C 1201.81,549.596 1209.79,543.937 1209.89,543.966 C 1210.29,543.744 1210.32,543.201 1210.1,542.807 C 1209.88,542.414 1209.36,542.273 1208.94,542.597 C 1205.89,544.416 1203.24,544.015 1201.73,543.047 C 1200.33,542.105 1199.75,540.617 1199.99,538.915 C 1200.8,534.377 1206.94,525.775 1206.96,525.672 C 1207.15,525.393 1207.16,524.953 1206.91,524.663 C 1206.66,524.371 1206.25,524.26 1205.88,524.379 C 1205.12,524.721 1202.73,525.389 1201.3,524.551 C 1200.46,523.987 1200.06,522.996 1199.92,521.518 C 1199.7,515.478 1209.59,506.915 1210.14,506.511 Z" fill="#072032" stroke-width="0.631" marker-start="none" marker-end="none"/>
   <path d="M 1003.79,482.886 C 1003.76,482.886 1003.75,482.886 1003.73,482.886 C 985.763,484.216 975.282,491.316 974.844,491.62 C 974.474,491.869 974.384,492.371 974.637,492.741 C 974.888,493.108 975.395,493.201 975.761,492.946 C 975.864,492.876 986.349,485.79 1003.85,484.497 C 1004.29,484.462 1004.63,484.078 1004.59,483.633 C 1004.56,483.208 1004.21,482.886 1003.79,482.886 Z" fill="#8196c9" stroke-width="0.631" marker-start="none" marker-end="none"/>
   <path d="M 1000.65,476.358 C 1000.62,476.358 1000.6,476.358 1000.57,476.36 C 987.918,477.618 979.945,481.645 979.611,481.815 C 979.212,482.017 979.056,482.503 979.259,482.903 C 979.464,483.298 979.951,483.456 980.349,483.253 C 980.425,483.214 988.401,479.196 1000.73,477.97 C 1001.17,477.927 1001.5,477.528 1001.45,477.086 C 1001.41,476.669 1001.06,476.358 1000.65,476.358 Z" fill="#8196c9" stroke-width="0.631" marker-start="none" marker-end="none"/>
   <ellipse rx="9.34" ry="9.34" transform="translate(1054.42 549.657) rotate(90)" fill="#000000"/>
   <path d="M 1046.65,558.3 C 1048.12,558.3 1049.32,557.107 1049.32,555.634 C 1049.32,554.157 1048.12,552.967 1046.65,552.967 C 1045.18,552.967 1043.98,554.157 1043.98,555.634 C 1043.98,557.107 1045.18,558.3 1046.65,558.3 Z" fill="#ffffff" stroke-width="0.631" marker-start="none" marker-end="none"/>
  </g>
 </g>
</svg>